<?xml version="1.0" standalone="no"?>
<!DOCTYPE svg PUBLIC "-//W3C//DTD SVG 20010904//EN"
 "http://www.w3.org/TR/2001/REC-SVG-20010904/DTD/svg10.dtd">
<svg version="1.0" xmlns="http://www.w3.org/2000/svg"
 width="147.000000pt" height="108.000000pt" viewBox="0 0 147.000000 108.000000"
 preserveAspectRatio="xMidYMid meet">
<metadata>
Created by potrace 1.16, written by Peter Selinger 2001-2019
</metadata>
<g transform="translate(0.000000,108.000000) scale(0.100000,-0.100000)"
fill="#000000" stroke="none">
<path d="M1320 975 c0 -8 -7 -15 -16 -15 -9 0 -12 5 -8 11 18 30 -141 -36
-221 -91 -70 -48 -168 -144 -227 -221 -47 -61 -54 -67 -62 -50 -17 39 94 226
144 243 8 3 12 9 7 13 -15 17 -88 -71 -130 -157 -23 -48 -45 -88 -48 -88 -3 0
-21 30 -40 68 -35 70 -125 172 -150 171 -9 0 -8 -4 6 -12 42 -25 103 -99 134
-162 52 -105 33 -110 -55 -16 -94 101 -185 170 -289 221 -84 41 -155 60 -155
41 0 -6 -7 -8 -15 -5 -8 4 -12 10 -9 15 3 5 -15 9 -40 9 -36 0 -46 -4 -51 -21
-14 -43 12 -120 64 -189 14 -19 38 -70 52 -112 14 -43 29 -81 32 -85 4 -3 7
-16 7 -28 0 -12 9 -33 19 -47 17 -21 19 -33 12 -84 -15 -105 11 -191 72 -236
56 -41 126 -68 177 -68 76 0 107 25 155 125 24 49 47 104 50 120 5 28 5 28 -6
8 -16 -30 -33 -30 -25 0 6 27 35 97 39 97 2 0 3 -33 4 -72 2 -85 19 -143 34
-116 5 9 10 53 11 98 2 80 2 80 19 53 23 -38 33 -73 20 -73 -5 0 -15 8 -21 18
-24 37 3 -33 40 -108 51 -102 76 -123 148 -128 49 -3 68 1 122 26 78 37 89 46
117 94 25 42 31 135 15 208 -8 35 -7 48 3 60 7 8 21 49 30 90 9 41 21 85 26
98 5 13 9 29 9 36 0 8 18 44 40 82 40 68 57 135 45 173 -5 17 -15 21 -46 21
-28 0 -39 -4 -39 -15z"/>
</g>
</svg>
