<?xml version="1.0" standalone="no"?>
<!DOCTYPE svg PUBLIC "-//W3C//DTD SVG 20010904//EN"
 "http://www.w3.org/TR/2001/REC-SVG-20010904/DTD/svg10.dtd">
<svg version="1.0" xmlns="http://www.w3.org/2000/svg"
 width="111.000000pt" height="102.000000pt" viewBox="0 0 111.000000 102.000000"
 preserveAspectRatio="xMidYMid meet">

<g transform="translate(0.000000,102.000000) scale(0.100000,-0.100000)"
fill="#000000" stroke="none">
<path d="M700 740 c0 -15 5 -20 18 -18 9 2 17 10 17 18 0 8 -8 16 -17 18 -13
2 -18 -3 -18 -18z"/>
<path d="M804 695 c0 -30 5 -55 10 -55 22 0 87 47 92 66 8 32 -3 46 -26 34
-12 -7 -27 -7 -45 0 -14 5 -28 10 -29 10 -2 0 -3 -25 -2 -55z"/>
</g>
</svg>
