<?xml version="1.0" standalone="no"?>
<!DOCTYPE svg PUBLIC "-//W3C//DTD SVG 20010904//EN"
 "http://www.w3.org/TR/2001/REC-SVG-20010904/DTD/svg10.dtd">
<svg version="1.0" xmlns="http://www.w3.org/2000/svg"
 width="256.000000pt" height="256.000000pt" viewBox="0 0 256.000000 256.000000"
 preserveAspectRatio="xMidYMid meet">

<g transform="translate(0.000000,256.000000) scale(0.100000,-0.100000)"
fill="#000000" stroke="none">
<path d="M1135 2439 c-39 -4 -82 -12 -95 -17 -22 -8 -15 -11 45 -22 105 -18
270 0 270 30 0 18 -109 23 -220 9z"/>
<path d="M1454 2422 c4 -7 -11 -12 -41 -15 l-48 -3 51 -2 c41 -2 55 -7 77 -30
15 -15 27 -33 27 -38 0 -6 11 -16 25 -22 20 -9 25 -9 25 3 0 7 -9 17 -20 20
-11 4 -27 19 -35 34 -8 16 -26 36 -41 46 -14 9 -24 12 -20 7z"/>
<path d="M1310 2370 c-8 -5 -11 -12 -8 -15 4 -4 17 0 30 9 24 17 5 23 -22 6z"/>
<path d="M850 2357 c-14 -6 -31 -18 -39 -25 -7 -7 -26 -16 -42 -19 -15 -3 -36
-14 -45 -24 -9 -11 -23 -19 -31 -19 -7 0 -13 -9 -13 -20 0 -11 -6 -20 -13 -20
-8 0 -24 -9 -37 -20 -13 -11 -31 -20 -42 -20 -10 0 -18 -7 -18 -16 0 -8 -18
-31 -39 -51 -22 -19 -42 -47 -46 -61 -10 -42 -44 -73 -71 -66 -18 5 -25 1 -30
-12 -13 -45 -38 -84 -53 -84 -9 0 -25 -15 -35 -32 l-19 -33 24 21 c13 12 33
25 45 28 20 6 29 19 52 78 8 19 16 26 27 22 10 -4 12 -10 7 -18 -5 -6 -12 -22
-14 -36 -3 -14 -9 -34 -13 -45 -6 -17 -4 -17 14 4 12 13 21 36 21 51 0 18 9
35 24 47 13 10 29 36 37 57 8 21 30 51 51 68 21 16 38 36 38 43 0 7 13 16 29
20 16 3 32 13 35 21 3 8 12 14 20 14 8 0 29 18 46 40 17 22 36 37 41 34 6 -3
24 5 42 18 18 13 44 29 60 36 15 6 27 16 27 22 0 12 -8 12 -40 -3z"/>
<path d="M1063 2353 c-13 -2 -23 -9 -23 -14 0 -14 -90 -98 -123 -115 -15 -8
-46 -19 -70 -23 -91 -19 -199 -80 -205 -117 -3 -17 -2 -17 20 4 26 25 98 74
98 66 0 -2 18 5 40 16 21 11 51 20 66 20 37 0 81 27 140 86 27 29 59 53 69 55
17 4 36 30 18 28 -4 -1 -18 -4 -30 -6z"/>
<path d="M1194 2313 c13 -13 20 -14 23 -6 2 7 12 9 21 6 9 -3 14 -3 10 2 -4 4
-22 9 -40 11 -31 4 -32 3 -14 -13z"/>
<path d="M1430 2321 c0 -4 8 -15 19 -25 22 -20 81 -39 81 -25 0 5 -6 9 -14 9
-7 0 -30 11 -50 25 -20 13 -36 21 -36 16z"/>
<path d="M1415 2200 c-8 -13 15 -13 35 0 12 8 11 10 -7 10 -12 0 -25 -4 -28
-10z"/>
<path d="M1296 2151 c-4 -5 3 -7 14 -4 23 6 26 13 6 13 -8 0 -17 -4 -20 -9z"/>
<path d="M920 2120 c-8 -6 -28 -10 -45 -10 -23 0 -26 -3 -15 -10 16 -10 58 -3
74 11 14 13 3 19 -14 9z"/>
<path d="M1276 2113 c-6 -14 -5 -15 5 -6 7 7 10 15 7 18 -3 3 -9 -2 -12 -12z"/>
<path d="M1351 2065 c-22 -7 -30 -15 -22 -19 7 -4 23 0 37 9 14 9 32 14 40 11
8 -3 14 -1 14 4 0 13 -26 11 -69 -5z"/>
<path d="M1133 2003 c15 -2 37 -2 50 0 12 2 0 4 -28 4 -27 0 -38 -2 -22 -4z"/>
<path d="M1219 1929 l-24 -20 28 17 c15 9 27 18 27 20 0 8 -8 4 -31 -17z"/>
<path d="M905 1853 c-35 -32 -36 -34 -9 -18 17 9 36 26 42 36 16 25 13 24 -33
-18z"/>
<path d="M294 1842 c-83 -71 -153 -357 -141 -576 18 -329 183 -638 446 -838
90 -68 151 -95 271 -118 137 -27 411 -39 428 -19 7 8 26 31 42 53 l30 38 -21
29 c-11 16 -24 29 -29 29 -5 0 -22 12 -39 26 -30 25 -30 26 -16 61 9 20 13 45
9 55 -5 16 -12 18 -50 12 -37 -5 -48 -3 -73 19 -40 34 -92 42 -132 21 -23 -12
-44 -14 -78 -9 -25 4 -64 8 -86 9 -64 3 -161 77 -171 132 -5 25 -14 35 -43 46
-30 12 -39 23 -49 55 -14 49 -15 83 -2 83 5 0 14 10 21 21 9 17 7 29 -6 59
-11 25 -15 51 -12 77 6 38 3 42 -64 109 -38 37 -69 72 -69 77 0 5 -11 23 -24
40 -73 98 -113 304 -81 427 14 56 17 100 7 100 -6 0 -16 2 -24 5 -7 2 -27 -8
-44 -23z m946 -1272 c0 -5 -4 -10 -10 -10 -5 0 -10 5 -10 10 0 6 5 10 10 10 6
0 10 -4 10 -10z"/>
<path d="M993 1811 c-24 -4 -45 -10 -49 -13 -9 -10 80 4 91 13 5 5 7 8 5 8 -3
-1 -24 -5 -47 -8z"/>
<path d="M1665 1810 c-3 -6 1 -7 9 -4 18 7 21 14 7 14 -6 0 -13 -4 -16 -10z"/>
<path d="M1575 1770 c3 -5 16 -10 28 -9 21 0 21 1 2 9 -28 12 -37 12 -30 0z"/>
<path d="M2315 1753 c10 -49 25 -187 25 -226 l0 -38 -26 20 c-36 28 -44 27
-95 -14 -24 -19 -59 -40 -78 -46 -29 -10 -37 -8 -62 10 -64 47 -66 13 -3 -54
44 -48 46 -49 60 -30 8 11 17 30 20 42 6 20 7 21 42 6 21 -8 38 -16 39 -17 1
-1 -4 -39 -12 -84 -18 -102 -68 -205 -126 -257 l-43 -38 -15 23 c-9 12 -37 45
-62 74 -25 28 -56 67 -69 86 -31 46 -81 100 -94 100 -5 0 6 -17 25 -37 29 -33
30 -34 3 -10 -72 65 -54 -1 22 -80 24 -25 44 -53 44 -64 0 -26 63 -86 99 -94
30 -6 35 -14 32 -42 -1 -7 1 -13 4 -13 16 0 64 32 93 63 25 28 29 37 17 40
-11 4 -10 5 2 3 14 -1 19 -12 21 -44 3 -35 -2 -50 -27 -84 -17 -23 -31 -48
-31 -55 0 -13 -60 -139 -106 -223 -13 -24 -24 -56 -24 -70 0 -28 -13 -38 133
107 53 54 157 204 210 305 35 67 53 131 61 223 2 28 9 66 15 85 13 41 1 159
-28 272 -30 117 -83 245 -66 161z m32 -365 c-3 -8 -6 -5 -6 6 -1 11 2 17 5 13
3 -3 4 -12 1 -19z m38 -106 c-6 -6 -35 61 -35 80 0 7 9 -7 20 -31 11 -24 18
-46 15 -49z"/>
<path d="M1690 1753 c14 -3 29 -9 35 -14 5 -5 17 -9 26 -9 10 0 25 -7 33 -16
9 -8 16 -11 16 -5 0 18 -77 52 -115 49 -15 0 -13 -2 5 -5z"/>
<path d="M1618 1733 c7 -3 16 -2 19 1 4 3 -2 6 -13 5 -11 0 -14 -3 -6 -6z"/>
<path d="M1035 1580 c-3 -5 -2 -10 4 -10 5 0 13 5 16 10 3 6 2 10 -4 10 -5 0
-13 -4 -16 -10z"/>
<path d="M1000 1540 c-6 -11 -8 -20 -6 -20 3 0 10 9 16 20 6 11 8 20 6 20 -3
0 -10 -9 -16 -20z"/>
<path d="M1740 1541 c10 -7 14 -30 15 -79 0 -39 3 -68 8 -65 9 5 8 88 -2 122
-4 14 -13 26 -21 29 -13 3 -13 2 0 -7z"/>
<path d="M1550 1530 c0 -5 5 -10 11 -10 5 0 7 5 4 10 -3 6 -8 10 -11 10 -2 0
-4 -4 -4 -10z"/>
<path d="M1668 1513 c7 -3 16 -2 19 1 4 3 -2 6 -13 5 -11 0 -14 -3 -6 -6z"/>
<path d="M1320 1500 c-8 -5 -12 -11 -9 -14 3 -3 14 1 25 9 21 16 8 20 -16 5z"/>
<path d="M1577 1499 c7 -7 15 -10 18 -7 3 3 -2 9 -12 12 -14 6 -15 5 -6 -5z"/>
<path d="M1617 1499 c7 -7 15 -10 18 -7 3 3 -2 9 -12 12 -14 6 -15 5 -6 -5z"/>
<path d="M974 1478 l-19 -23 23 19 c21 18 27 26 19 26 -2 0 -12 -10 -23 -22z"/>
<path d="M620 1249 c0 -5 5 -7 10 -4 6 3 10 8 10 11 0 2 -4 4 -10 4 -5 0 -10
-5 -10 -11z"/>
<path d="M676 1244 c-4 -9 -4 -19 -1 -22 2 -3 7 3 11 12 4 9 4 19 1 22 -2 3
-7 -3 -11 -12z"/>
<path d="M2065 600 c-11 -17 -35 -42 -52 -56 -18 -14 -33 -32 -33 -40 0 -9
-10 -24 -22 -35 l-23 -19 27 11 c15 7 30 20 33 30 4 10 18 28 32 39 28 22 73
79 73 92 0 17 -16 7 -35 -22z"/>
<path d="M1372 345 c-6 -14 -16 -25 -22 -25 -5 0 -10 -4 -10 -10 0 -5 4 -10
10 -10 10 0 44 59 37 66 -2 2 -9 -7 -15 -21z"/>
<path d="M899 246 c59 -71 399 -111 599 -70 72 14 190 59 181 68 -2 3 -36 -4
-74 -15 -140 -40 -454 -34 -623 11 -88 24 -99 25 -83 6z"/>
</g>
</svg>
