<?xml version="1.0" standalone="no"?>
<!DOCTYPE svg PUBLIC "-//W3C//DTD SVG 20010904//EN"
 "http://www.w3.org/TR/2001/REC-SVG-20010904/DTD/svg10.dtd">
<svg version="1.0" xmlns="http://www.w3.org/2000/svg"
 width="256.000000pt" height="256.000000pt" viewBox="0 0 256.000000 256.000000"
 preserveAspectRatio="xMidYMid meet">

<g transform="translate(0.000000,256.000000) scale(0.100000,-0.100000)"
fill="#000000" stroke="none">
<path d="M1060 2401 c-218 -48 -378 -132 -530 -277 -230 -220 -342 -482 -341
-804 0 -506 335 -930 837 -1061 77 -20 112 -23 259 -23 150 1 181 4 267 27
601 160 952 773 782 1365 -32 111 -109 269 -173 353 -117 154 -293 291 -461
360 -139 56 -211 70 -390 75 -136 3 -180 0 -250 -15z m450 -96 c325 -76 539
-297 540 -557 0 -37 5 -70 11 -74 6 -3 8 -15 6 -26 -4 -14 0 -22 12 -25 14 -4
18 -13 15 -43 -2 -22 1 -42 6 -45 4 -3 5 -18 1 -33 -4 -15 -7 -89 -6 -164 2
-122 0 -139 -16 -154 -10 -9 -16 -21 -13 -25 3 -5 -1 -9 -8 -9 -11 0 -10 -2 0
-9 11 -6 10 -10 -3 -15 -15 -5 -15 -9 -4 -23 10 -12 10 -14 2 -9 -8 4 -13 1
-13 -8 0 -8 -9 -20 -20 -26 -11 -6 -22 -21 -26 -34 -3 -13 -17 -34 -30 -47
-13 -12 -24 -31 -24 -42 0 -19 -1 -19 -19 -3 -11 10 -24 16 -28 13 -5 -3 -15
-1 -23 4 -13 8 -13 10 -1 18 19 13 4 31 -26 31 -21 0 -24 -3 -19 -23 4 -19 0
-26 -19 -35 -28 -13 -41 -1 -27 25 10 20 5 43 -9 43 -5 0 -14 -11 -19 -25 -9
-22 -12 -24 -30 -13 -11 7 -20 19 -20 26 0 7 -4 10 -10 7 -6 -4 -5 -13 2 -24
9 -15 5 -25 -22 -60 -19 -23 -40 -39 -47 -37 -7 3 -13 1 -13 -5 0 -6 -4 -8 -9
-4 -14 8 -91 -6 -85 -16 3 -5 -2 -9 -10 -9 -9 0 -16 -3 -16 -7 0 -16 -83 -12
-95 4 -12 16 -40 9 -30 -7 5 -9 -32 -40 -48 -40 -5 0 -6 7 -3 15 5 13 -1 15
-32 10 -20 -4 -44 -9 -52 -12 -8 -2 -64 -6 -124 -9 -93 -3 -111 -6 -125 -23
-25 -29 -68 -44 -78 -28 -4 7 -23 19 -40 26 -18 8 -33 18 -33 23 0 5 -8 12
-17 16 -47 20 -81 48 -91 76 -7 16 -14 27 -18 24 -3 -4 -19 8 -35 25 -15 18
-29 26 -29 20 0 -7 -9 -13 -20 -13 -11 0 -20 -7 -20 -15 0 -12 -4 -12 -28 0
-42 21 -74 33 -105 39 -48 11 -85 64 -83 119 1 15 -2 27 -7 27 -5 0 -4 6 2 14
8 10 8 16 -2 25 -8 6 -12 22 -9 36 3 18 0 25 -12 25 -9 0 -16 8 -16 19 0 11
-6 21 -12 24 -10 3 -9 13 5 39 17 33 15 68 -5 68 -5 0 -6 5 -2 11 3 6 0 15 -7
20 -11 7 -11 9 3 9 9 0 17 8 17 18 3 67 6 79 21 74 13 -5 13 -3 1 11 -10 13
-10 17 -1 17 7 0 10 7 6 15 -3 8 1 18 8 22 14 9 66 118 66 140 0 7 -7 16 -16
20 -15 5 -15 7 0 15 9 5 16 18 16 28 0 11 6 20 13 20 9 0 14 13 15 35 2 38 16
58 49 69 11 4 29 25 39 49 25 55 98 146 160 197 101 84 239 146 392 175 99 19
300 14 402 -10z m254 -1405 c-6 -6 -10 -2 -11 12 -2 16 1 18 10 9 7 -7 8 -14
1 -21z m-795 -431 c45 -11 93 -26 105 -34 24 -16 121 -21 200 -10 30 4 51 3
55 -4 7 -11 141 16 220 44 24 8 54 15 67 15 12 0 25 4 28 9 4 5 24 12 47 16
31 5 45 3 59 -10 11 -10 17 -21 15 -25 -3 -5 1 -10 7 -13 17 -5 -80 -54 -167
-84 -242 -82 -532 -64 -760 49 -33 16 -67 36 -75 45 -8 9 -10 13 -3 9 6 -3 14
2 17 12 7 21 11 21 185 -19z"/>
<path d="M340 1289 c0 -5 5 -7 10 -4 6 3 10 8 10 11 0 2 -4 4 -10 4 -5 0 -10
-5 -10 -11z"/>
</g>
</svg>
