<?xml version="1.0" standalone="no"?>
<!DOCTYPE svg PUBLIC "-//W3C//DTD SVG 20010904//EN"
 "http://www.w3.org/TR/2001/REC-SVG-20010904/DTD/svg10.dtd">
<svg version="1.0" xmlns="http://www.w3.org/2000/svg"
 width="298.000000pt" height="295.000000pt" viewBox="0 0 298.000000 295.000000"
 preserveAspectRatio="xMidYMid meet">

<g transform="translate(0.000000,295.000000) scale(0.100000,-0.100000)"
fill="#000000" stroke="none">
<path d="M1340 2939 c-174 -19 -356 -73 -525 -157 -271 -134 -517 -378 -651
-644 -114 -226 -172 -480 -161 -708 31 -683 513 -1247 1187 -1390 159 -34 379
-38 539 -11 622 106 1090 555 1223 1175 31 147 31 399 -1 546 -67 313 -206
569 -422 775 -253 242 -552 379 -908 415 -116 11 -159 11 -281 -1z m99 -655
c2 -2 -16 -4 -40 -4 -31 0 -40 3 -29 10 13 8 57 4 69 -6z m-406 -331 c-7 -2
-21 -2 -30 0 -10 3 -4 5 12 5 17 0 24 -2 18 -5z m567 -94 c19 -11 -69 -12
-125 -2 l-40 7 35 7 c39 7 107 1 130 -12z m-674 -80 c5 -8 -1 -10 -19 -7 -17
3 -24 1 -20 -5 4 -6 0 -8 -11 -4 -10 4 -24 7 -32 7 -8 0 -14 3 -14 8 0 12 88
13 96 1z m378 -16 c20 -53 36 -68 105 -101 l74 -35 -24 -18 -24 -17 25 -6 c14
-3 54 -11 89 -17 36 -6 73 -17 84 -24 18 -12 17 -13 -10 -19 -16 -4 -62 -2
-103 4 -41 6 -128 15 -193 20 -124 10 -155 18 -121 31 17 7 17 8 2 8 -10 1
-18 5 -18 10 0 5 -11 12 -25 15 -14 4 -25 10 -25 15 0 8 94 7 196 -3 53 -6 57
-5 40 9 -11 8 -31 25 -45 38 -15 13 -34 26 -44 30 -22 8 -25 77 -3 77 7 0 17
-8 20 -17z m-211 -98 c51 -14 14 -22 -67 -15 -44 4 -95 4 -113 0 -18 -5 -36
-4 -39 1 -5 9 0 12 35 21 23 6 154 2 184 -7z m-74 -81 c2 -2 -12 -4 -33 -4
-22 0 -35 4 -31 10 5 9 52 4 64 -6z m136 1 l30 -14 -35 6 c-19 3 -44 10 -55
14 -18 7 -17 8 5 8 14 0 39 -6 55 -14z m-226 1 c-11 -9 -69 -14 -69 -6 0 6 17
10 37 10 20 0 34 -2 32 -4z"/>
</g>
</svg>
