<?xml version="1.0" standalone="no"?>
<!DOCTYPE svg PUBLIC "-//W3C//DTD SVG 20010904//EN"
 "http://www.w3.org/TR/2001/REC-SVG-20010904/DTD/svg10.dtd">
<svg version="1.0" xmlns="http://www.w3.org/2000/svg"
 width="256.000000pt" height="256.000000pt" viewBox="0 0 256.000000 256.000000"
 preserveAspectRatio="xMidYMid meet">

<g transform="translate(0.000000,256.000000) scale(0.100000,-0.100000)"
fill="#000000" stroke="none">
<path d="M2437 1840 c10 -25 13 -44 7 -49 -5 -5 -180 -108 -389 -228 -209
-121 -571 -330 -805 -465 -234 -135 -477 -276 -541 -313 l-117 -67 -18 -61
c-10 -35 -18 -95 -18 -139 0 -42 -4 -75 -8 -72 -4 3 -8 1 -8 -5 0 -5 -14 -24
-31 -41 l-32 -31 29 7 c16 4 46 13 66 20 31 11 1740 990 1850 1060 33 21 38
30 53 100 11 49 16 97 12 137 -5 61 -40 171 -57 182 -5 3 -1 -13 7 -35z"/>
<path d="M200 840 c-29 -29 -25 -37 20 -44 28 -4 39 -10 35 -19 -4 -6 3 0 15
16 29 37 40 34 33 -8 -10 -65 56 -185 102 -185 12 0 7 7 -16 23 -62 41 -91
128 -65 189 6 12 0 21 -23 32 -41 22 -77 20 -101 -4z"/>
<path d="M352 790 c0 -14 2 -19 5 -12 2 6 2 18 0 25 -3 6 -5 1 -5 -13z"/>
<path d="M378 693 c6 -10 21 -29 34 -43 13 -13 22 -29 20 -35 -2 -5 2 -5 8 2
9 8 2 21 -30 53 -23 23 -37 33 -32 23z"/>
</g>
</svg>
