<?xml version="1.0" standalone="no"?>
<!DOCTYPE svg PUBLIC "-//W3C//DTD SVG 20010904//EN"
 "http://www.w3.org/TR/2001/REC-SVG-20010904/DTD/svg10.dtd">
<svg version="1.0" xmlns="http://www.w3.org/2000/svg"
 width="256.000000pt" height="256.000000pt" viewBox="0 0 256.000000 256.000000"
 preserveAspectRatio="xMidYMid meet">

<g transform="translate(0.000000,256.000000) scale(0.100000,-0.100000)"
fill="#000000" stroke="none">
<path d="M885 2494 c-58 -28 -50 -31 17 -7 45 16 48 16 96 -5 56 -24 157 -30
210 -11 25 8 35 7 56 -7 44 -28 200 -17 220 15 4 6 -9 4 -28 -4 -45 -19 -149
-19 -184 -1 -22 12 -42 12 -102 4 -77 -11 -75 -12 -210 31 -18 6 -39 1 -75
-15z"/>
<path d="M1776 2460 c-51 -33 -119 -34 -231 -4 -17 4 -17 3 -4 -5 9 -6 47 -15
85 -22 62 -10 75 -9 132 10 53 18 67 20 80 9 9 -7 44 -36 78 -64 33 -28 88
-66 123 -85 l62 -34 110 -219 c60 -121 116 -228 125 -237 15 -17 13 -27 -27
-140 l-42 -121 22 -87 c13 -47 31 -125 40 -173 11 -52 28 -102 43 -125 48 -72
61 -108 68 -182 7 -69 6 -79 -21 -135 -15 -34 -40 -74 -54 -90 -23 -25 -34
-29 -71 -27 -59 2 -88 22 -103 72 -10 31 -20 44 -46 55 -18 7 -37 19 -40 24
-4 6 -18 15 -31 20 -13 5 -24 18 -24 28 0 31 -39 42 -165 47 -109 4 -154 10
-350 45 -33 6 -73 20 -88 31 -15 11 -46 27 -68 34 -22 8 -53 24 -68 34 -23 17
-34 19 -62 11 -19 -6 -52 -10 -74 -10 -22 0 -73 -9 -114 -20 -60 -15 -81 -26
-114 -60 -23 -22 -60 -49 -83 -59 -23 -10 -60 -36 -83 -56 -35 -32 -41 -43
-41 -78 0 -54 -19 -153 -37 -199 -32 -77 -118 -127 -217 -126 -76 1 -104 13
-200 86 -89 69 -89 69 -145 177 l-41 80 0 147 c0 106 6 176 20 252 26 132 39
170 85 239 29 44 34 59 26 73 -5 11 -28 92 -51 182 l-41 163 33 42 c40 50 63
81 125 167 26 36 75 96 110 134 34 39 60 72 57 75 -8 8 -78 -72 -167 -188
-133 -174 -167 -224 -167 -248 0 -21 76 -312 83 -319 3 -3 -11 -31 -29 -62
-51 -85 -108 -293 -107 -392 0 -19 0 -64 1 -100 0 -192 0 -189 51 -285 39 -73
60 -100 112 -143 35 -29 96 -68 135 -87 42 -21 76 -45 84 -60 30 -56 214 -144
360 -172 79 -15 105 -25 155 -59 82 -57 106 -67 215 -97 98 -27 125 -31 197
-29 36 2 53 11 110 59 118 101 270 187 310 177 34 -9 193 57 282 117 47 31
129 97 182 146 191 176 213 215 212 365 -1 97 -1 98 -50 185 -26 49 -58 124
-69 168 -12 44 -32 113 -44 153 l-21 73 35 107 c20 59 36 117 36 128 0 12 -12
34 -26 50 -14 16 -45 72 -70 126 -24 53 -54 114 -66 135 -13 21 -39 73 -59
116 -34 73 -39 79 -95 107 -33 16 -97 61 -144 99 -47 39 -89 70 -95 71 -5 0
-23 -9 -39 -20z"/>
<path d="M720 2438 c-75 -21 -210 -71 -227 -84 -19 -14 82 17 202 61 92 35
104 46 25 23z"/>
<path d="M801 1171 c-11 -7 -11 -16 1 -52 17 -50 38 -59 68 -31 21 19 19 52
-3 52 -6 0 -20 9 -32 20 -13 12 -25 16 -34 11z"/>
</g>
</svg>
