<?xml version="1.0" standalone="no"?>
<!DOCTYPE svg PUBLIC "-//W3C//DTD SVG 20010904//EN"
 "http://www.w3.org/TR/2001/REC-SVG-20010904/DTD/svg10.dtd">
<svg version="1.0" xmlns="http://www.w3.org/2000/svg"
 width="370.000000pt" height="370.000000pt" viewBox="0 0 370.000000 370.000000"
 preserveAspectRatio="xMidYMid meet">

<g transform="translate(0.000000,370.000000) scale(0.100000,-0.100000)"
fill="#000000" stroke="none">
<path d="M1675 3419 c-497 -49 -952 -342 -1212 -782 -100 -170 -180 -410 -203
-612 -95 -837 472 -1599 1300 -1746 141 -25 396 -30 511 -9 369 66 657 215
903 468 211 217 345 467 413 772 38 171 43 407 13 585 -141 833 -889 1407
-1725 1324z m139 -84 c-4 -10 0 -13 13 -10 11 2 20 -2 20 -9 0 -7 -21 -12 -61
-12 -34 -1 -55 1 -48 3 6 3 9 10 6 16 -5 8 -2 8 7 0 18 -17 34 -17 20 0 -8 10
-7 14 4 14 7 0 13 -5 12 -10 -1 -5 4 -12 12 -15 8 -3 11 0 7 7 -4 6 -4 16 -1
21 9 15 15 12 9 -5z m80 -8 c-2 -11 -6 -22 -10 -26 -4 -3 -5 1 -1 10 3 9 1 21
-4 26 -6 6 -4 10 5 10 9 0 13 -8 10 -20z m-168 -17 c0 -13 -10 -16 -46 -15
-25 1 -51 -3 -57 -8 -9 -6 -13 -5 -13 4 0 11 -2 11 -10 -1 -9 -13 -10 -13 -11
0 0 10 -3 9 -8 -4 -7 -19 -8 -19 -13 1 -4 15 -1 20 11 18 9 -1 22 3 30 9 11 8
13 8 7 -1 -4 -7 -2 -13 3 -13 6 0 11 6 11 13 0 8 4 7 10 -3 9 -13 10 -13 10 0
0 13 1 13 10 0 9 -13 10 -13 10 0 0 12 2 12 9 2 7 -11 9 -11 14 0 7 20 33 18
33 -2z m141 -2 c-3 -8 -6 -5 -6 6 -1 11 2 17 5 13 3 -3 4 -12 1 -19z m125 -7
c-3 -9 -7 -11 -9 -4 -3 7 -11 9 -19 6 -28 -11 -13 -20 34 -22 104 -2 321 -65
454 -132 155 -77 286 -182 373 -301 24 -31 45 -55 48 -52 3 3 8 0 13 -7 4 -8
3 -10 -4 -5 -7 4 -12 6 -12 4 0 -13 60 -140 60 -128 0 9 9 16 19 17 16 1 18
-4 15 -30 -4 -24 -2 -28 5 -17 9 13 11 13 11 -2 0 -10 5 -18 10 -18 6 0 10 -5
10 -11 0 -5 -5 -7 -12 -3 -7 4 -8 3 -4 -5 6 -9 11 -9 21 -1 9 8 12 4 10 -15
-2 -14 1 -27 5 -30 5 -3 7 3 5 14 -2 14 1 18 11 14 7 -3 11 -9 8 -14 -3 -5 -1
-9 4 -9 13 0 62 -99 52 -105 -5 -3 -8 -14 -7 -25 1 -10 5 -16 9 -14 5 3 5 10
2 16 -4 7 -2 8 4 4 6 -4 8 -14 5 -23 -5 -12 -3 -14 8 -8 11 7 11 5 -1 -10 -8
-10 -10 -16 -4 -12 6 3 16 -5 23 -19 6 -15 7 -23 1 -19 -9 5 -12 -5 -9 -32 0
-5 7 -7 14 -7 9 1 12 -3 8 -10 -8 -12 -10 -18 -12 -42 0 -8 -5 -12 -11 -9 -16
10 -11 -1 7 -16 9 -8 14 -9 11 -4 -4 6 -2 17 3 25 6 10 8 3 4 -23 -2 -21 -1
-35 4 -33 7 5 11 -8 12 -47 0 -11 5 -15 12 -10 7 4 6 0 -2 -10 -15 -19 -35
-12 -27 10 3 8 1 11 -4 8 -6 -3 -10 -1 -10 4 0 6 5 11 10 11 6 0 10 6 10 13
-1 6 -9 2 -20 -11 -16 -20 -17 -26 -5 -48 7 -15 11 -32 9 -39 -3 -6 2 -17 10
-24 8 -7 12 -20 9 -29 -5 -14 -3 -13 9 2 14 18 15 18 13 -5 -1 -13 5 -30 14
-37 9 -8 11 -11 4 -8 -12 6 -12 -18 0 -30 4 -4 1 -14 -6 -22 -9 -13 -9 -14 1
-8 8 5 12 -2 12 -26 0 -24 3 -29 9 -18 7 10 9 3 7 -22 -2 -19 -7 -41 -11 -48
-5 -8 -4 -11 2 -7 14 9 14 -44 1 -60 -7 -9 -6 -13 3 -13 11 0 11 -2 -1 -10
-13 -8 -12 -10 3 -10 10 0 15 -5 12 -10 -4 -6 -10 -8 -14 -6 -4 3 -8 -1 -8 -9
0 -8 3 -12 7 -10 4 2 7 -2 7 -9 0 -8 -6 -12 -14 -9 -9 4 -13 -4 -13 -24 0 -16
-6 -38 -14 -49 -9 -11 -12 -29 -9 -43 4 -17 2 -22 -6 -17 -6 4 -11 13 -11 21
0 32 -15 20 -17 -13 -1 -29 0 -33 7 -17 8 18 9 18 9 2 1 -11 6 -15 13 -11 7 4
8 3 4 -5 -4 -6 -12 -9 -17 -6 -8 6 -13 -9 -10 -28 1 -5 -3 -6 -9 -2 -6 3 -8
11 -5 16 4 5 -2 6 -11 2 -11 -4 -13 -8 -6 -11 7 -2 12 -10 12 -18 0 -9 4 -13
8 -10 5 3 9 -2 9 -10 0 -10 -4 -11 -11 -4 -14 14 -29 13 -20 -2 5 -9 2 -8 -10
1 -15 12 -19 12 -32 -1 -13 -13 -13 -15 1 -16 8 -1 21 -3 29 -4 11 -1 9 -8 -7
-30 -24 -32 -23 -32 -33 -16 -4 7 -3 8 4 4 14 -9 15 4 2 24 -8 13 -10 12 -10
-3 0 -10 -4 -16 -9 -13 -5 4 -7 -2 -4 -13 5 -21 -12 -37 -22 -21 -12 20 -27
10 -23 -15 3 -15 1 -22 -5 -18 -6 4 -8 0 -4 -10 4 -11 -2 -24 -15 -37 -18 -17
-20 -22 -8 -33 10 -10 12 -9 7 4 -3 9 0 16 8 16 10 0 10 -7 3 -30 -8 -21 -13
-25 -19 -15 -5 7 -9 9 -9 4 0 -5 -8 -2 -17 5 -14 11 -14 9 1 -9 21 -25 31 -56
14 -46 -5 3 -8 -2 -6 -12 1 -11 -1 -21 -6 -24 -17 -9 -15 35 1 48 9 6 12 12 5
12 -6 0 -18 -10 -26 -22 -14 -20 -14 -24 0 -46 12 -18 13 -27 4 -36 -8 -8 -10
-6 -5 9 l7 20 -17 -20 c-16 -19 -16 -19 -10 7 6 23 4 28 -11 28 -11 0 -15 -3
-8 -8 5 -4 11 -16 11 -27 4 -63 9 -102 17 -114 6 -9 5 -12 -2 -7 -6 3 -16 -2
-21 -13 -8 -14 -8 -20 1 -23 8 -3 5 -16 -11 -41 -25 -41 -27 -42 -37 -25 -4 7
-3 8 4 4 16 -10 14 5 -3 28 -8 11 -15 15 -15 8 0 -7 -7 -9 -17 -5 -15 5 -16 4
-7 -8 7 -8 11 -34 10 -58 -2 -40 -8 -49 -61 -99 -327 -304 -899 -408 -1384
-252 -235 75 -455 227 -554 382 -65 101 -71 113 -69 122 2 5 -5 3 -14 -5 -11
-9 -15 -9 -10 -2 9 17 17 58 9 49 -3 -3 -13 0 -22 7 -14 10 -14 10 -4 -4 7 -9
9 -20 5 -24 -4 -5 -1 -5 7 0 10 5 12 4 7 -4 -4 -6 -12 -9 -17 -5 -5 3 -7 9 -4
14 3 5 0 12 -6 15 -5 4 -8 14 -4 22 4 13 3 14 -10 3 -13 -11 -14 -10 -9 4 4
11 2 16 -7 14 -9 -2 -13 5 -11 20 2 15 -2 22 -13 22 -9 0 -13 5 -10 10 4 6 12
8 18 4 7 -3 2 3 -10 14 -25 22 -31 38 -10 26 9 -6 9 -5 0 8 -7 8 -9 19 -5 23
4 5 1 5 -6 1 -7 -4 -10 -12 -7 -17 4 -5 1 -9 -4 -9 -14 0 -14 22 -1 38 6 6 7
10 4 7 -4 -3 -13 0 -20 6 -8 6 -20 9 -28 6 -10 -4 -13 -1 -9 9 3 9 0 14 -8 12
-10 -2 -14 7 -14 29 0 17 -3 29 -7 26 -5 -2 -8 3 -8 12 0 10 -5 13 -12 9 -8
-5 -8 -2 1 10 12 15 12 17 0 14 -8 -2 -13 3 -11 10 1 6 -3 12 -9 12 -5 0 -7 5
-4 10 11 17 12 111 2 117 -6 3 -7 1 -3 -5 3 -6 2 -13 -3 -16 -10 -7 -9 13 2
30 4 7 -2 23 -13 36 -11 14 -16 29 -12 32 4 4 1 6 -7 4 -7 -1 -16 3 -19 11 -2
8 -1 11 4 8 5 -3 9 11 8 31 0 21 4 43 10 51 8 11 8 13 0 8 -15 -9 -24 25 -13
46 6 10 5 18 -2 23 -8 5 -9 3 -4 -6 5 -8 4 -11 -2 -7 -5 4 -9 19 -8 34 1 15
-1 33 -5 38 -4 6 -6 30 -5 55 1 25 -4 51 -9 59 -8 11 -8 13 1 8 8 -5 11 3 9
25 -2 18 -1 38 3 43 6 10 7 16 10 36 0 5 7 7 13 3 10 -5 10 -4 1 6 -8 8 -9 20
-2 37 5 13 8 27 7 31 -1 4 3 17 10 30 10 18 10 22 0 23 -7 0 -4 4 7 9 11 5 14
9 6 9 -9 1 -8 6 6 19 10 9 13 13 6 8 -8 -5 -13 -4 -13 2 0 6 7 15 16 20 11 6
13 12 6 16 -8 4 -8 15 0 36 5 17 14 27 19 24 5 -3 9 -2 10 3 4 36 12 69 20 79
5 6 5 15 1 20 -4 4 1 3 10 -4 14 -11 16 -10 11 7 -3 14 -1 21 8 21 11 0 11 2
-1 10 -11 7 -12 10 -2 10 9 0 11 7 7 23 -7 21 -7 22 8 2 14 -19 15 -19 10 8
-3 14 -2 35 3 44 4 10 8 21 9 26 2 4 4 10 5 15 1 4 2 11 1 16 -1 5 5 4 13 -3
13 -11 15 -9 11 9 -3 17 -1 20 13 15 13 -5 14 -3 5 6 -9 9 -6 20 12 47 13 19
21 40 18 45 -3 6 -1 7 6 3 12 -8 10 -14 -21 -58 -11 -16 -17 -28 -14 -28 11 0
54 73 50 85 -3 6 2 18 10 25 9 7 13 17 9 24 -4 6 5 3 19 -6 19 -13 29 -15 34
-6 4 6 3 8 -3 5 -6 -4 -17 1 -24 10 -12 14 -12 16 0 8 11 -6 13 -4 8 9 -4 10
-3 15 3 11 6 -3 10 -1 10 5 0 6 5 8 12 4 8 -5 9 -2 4 11 -5 15 -4 16 9 5 13
-11 14 -10 10 3 -4 8 -1 18 6 23 7 4 10 3 5 -4 -3 -6 -1 -14 5 -18 7 -4 9 -3
6 3 -4 6 1 19 9 29 9 10 13 12 9 4 -4 -8 4 -1 17 15 156 204 448 370 721 410
26 4 47 10 47 14 0 3 24 6 53 7 211 3 261 6 237 15 l-25 9 27 -4 c15 -1 32 0
38 4 20 12 38 7 32 -9z m31 6 c3 -8 -1 -14 -8 -14 -7 0 -11 6 -8 14 3 7 6 13
8 13 2 0 5 -6 8 -13z m34 -4 c0 -9 -4 -10 -14 -2 -7 6 -13 12 -13 14 0 1 6 2
13 2 8 0 14 -6 14 -14z m43 2 c0 -2 -6 -8 -13 -14 -10 -8 -14 -7 -14 2 0 8 6
14 14 14 7 0 13 -1 13 -2z m-542 -30 c-3 -3 -9 2 -12 12 -6 14 -5 15 5 6 7 -7
10 -15 7 -18z m-40 1 c19 3 23 2 13 -5 -18 -12 -44 -7 -47 8 -1 6 0 7 2 2 3
-5 17 -7 32 -5z m1412 -542 c0 -8 -19 -13 -24 -6 -3 5 1 9 9 9 8 0 15 -2 15
-3z m23 -38 c7 4 8 3 4 -1 -13 -15 -35 -14 -41 2 -3 8 -1 11 4 8 6 -3 11 0 11
7 1 7 3 5 6 -5 3 -10 10 -14 16 -11z m221 -622 c3 -8 2 -12 -4 -9 -6 3 -10 10
-10 16 0 14 7 11 14 -7z m64 -149 c-3 -30 -11 -23 -13 9 0 14 3 22 7 20 4 -3
7 -16 6 -29z m-2803 -278 c3 -14 1 -28 -3 -31 -5 -3 -8 5 -7 17 1 12 -2 31 -8
42 -7 15 -7 17 2 9 7 -6 14 -22 16 -37z m35 -139 c10 -21 10 -21 -3 -6 -8 10
-18 14 -22 10 -5 -4 -5 -1 -1 6 10 17 14 15 26 -10z m17 -93 c0 -8 -4 -12 -9
-9 -5 3 -6 10 -3 15 9 13 12 11 12 -6z m2587 -103 c3 -5 -1 -9 -9 -9 -8 0 -12
4 -9 9 3 4 7 8 9 8 2 0 6 -4 9 -8z m-2479 -121 c3 -5 0 -13 -6 -17 -7 -4 -9
-3 -5 4 3 5 0 13 -6 15 -9 4 -10 6 -1 6 6 1 14 -3 18 -8z"/>
<path d="M719 2713 c-13 -16 -12 -17 4 -4 9 7 17 15 17 17 0 8 -8 3 -21 -13z"/>
<path d="M603 2505 c0 -8 4 -12 9 -9 5 3 6 10 3 15 -9 13 -12 11 -12 -6z"/>
<path d="M503 2273 c4 -3 1 -13 -6 -22 -11 -14 -10 -14 6 -2 20 15 22 31 5 31
-6 0 -8 -3 -5 -7z"/>
<path d="M3110 2259 c0 -5 5 -7 10 -4 6 3 10 8 10 11 0 2 -4 4 -10 4 -5 0 -10
-5 -10 -11z"/>
<path d="M461 2116 c-9 -11 -9 -16 1 -22 7 -4 10 -4 6 1 -4 4 -3 14 3 22 6 7
9 13 6 13 -2 0 -10 -6 -16 -14z"/>
<path d="M453 2073 c4 -3 1 -13 -6 -22 -11 -14 -10 -14 5 -2 16 12 16 31 1 31
-4 0 -3 -3 0 -7z"/>
<path d="M424 1946 c1 -8 5 -18 8 -22 4 -3 5 1 4 10 -1 8 -5 18 -8 22 -4 3 -5
-1 -4 -10z"/>
<path d="M422 1828 c2 -13 6 -27 9 -33 4 -5 5 -18 4 -28 -2 -9 0 -15 5 -12 9
6 7 31 -3 41 -4 4 -1 14 6 22 10 13 9 14 -2 7 -11 -6 -13 -4 -8 8 3 10 2 17
-4 17 -5 0 -8 -10 -7 -22z"/>
<path d="M3206 1813 c-6 -14 -5 -15 5 -6 7 7 10 15 7 18 -3 3 -9 -2 -12 -12z"/>
<path d="M2734 1656 c-3 -9 -12 -16 -19 -16 -8 0 -17 -4 -20 -10 -10 -17 11
-11 36 9 13 11 21 23 17 27 -4 4 -10 -1 -14 -10z"/>
<path d="M2702 1570 c0 -14 2 -19 5 -12 2 6 2 18 0 25 -3 6 -5 1 -5 -13z"/>
<path d="M2902 1425 c-8 -10 -9 -15 -2 -15 6 0 8 -6 4 -12 -6 -10 -3 -9 8 0 9
8 14 20 11 28 -6 17 -5 17 -21 -1z"/>
<path d="M2953 1391 c-1 -14 3 -18 13 -14 17 6 19 33 1 33 -7 0 -13 -9 -14
-19z"/>
<path d="M3080 1369 c0 -5 5 -7 10 -4 6 3 10 8 10 11 0 2 -4 4 -10 4 -5 0 -10
-5 -10 -11z"/>
<path d="M2959 1358 c-6 -20 -5 -38 1 -48 5 -7 7 0 6 19 -1 26 -4 39 -7 29z"/>
<path d="M2983 1321 c-1 -15 1 -19 4 -11 3 8 12 20 20 27 13 10 13 12 -4 10
-13 0 -19 -9 -20 -26z"/>
<path d="M2964 1273 c3 -16 16 -22 16 -8 0 3 0 10 0 15 0 6 -4 10 -9 10 -5 0
-8 -8 -7 -17z"/>
<path d="M2870 1136 c0 -2 8 -10 18 -17 15 -13 16 -12 3 4 -13 16 -21 21 -21
13z"/>
<path d="M2846 890 c9 -17 20 -28 25 -25 5 4 9 8 9 11 0 3 -4 2 -10 -1 -5 -3
-10 1 -10 10 0 10 5 13 13 9 7 -4 9 -3 4 2 -5 5 -12 9 -15 9 -4 0 -12 4 -19 8
-7 5 -6 -4 3 -23z"/>
</g>
</svg>
