<svg id="svg" version="1.1" xmlns="http://www.w3.org/2000/svg" xmlns:xlink="http://www.w3.org/1999/xlink" width="400" height="292.10526315789474" viewBox="0, 0, 400,292.10526315789474"><g id="svgg"><path id="path0" d="M308.337 19.672 C 307.820 19.860,307.190 20.221,306.938 20.474 C 305.965 21.449,306.019 30.448,307.004 31.433 C 307.251 31.680,307.689 32.762,307.978 33.837 C 308.824 36.991,309.157 37.803,309.859 38.422 C 310.224 38.744,310.748 39.467,311.024 40.029 C 311.300 40.592,311.903 41.446,312.363 41.928 C 314.380 44.040,317.426 47.040,319.334 48.795 C 320.744 50.091,321.400 50.908,321.401 51.368 C 321.402 52.004,317.982 55.803,317.401 55.810 C 317.272 55.812,316.903 56.146,316.581 56.552 C 316.260 56.958,315.813 57.450,315.588 57.645 C 315.363 57.839,314.484 58.656,313.634 59.459 C 312.783 60.263,311.945 61.052,311.769 61.213 C 311.594 61.373,310.477 62.524,309.286 63.769 C 308.095 65.015,307.000 66.034,306.852 66.034 C 306.704 66.034,306.334 66.382,306.031 66.809 C 305.727 67.235,305.240 67.794,304.948 68.050 C 303.349 69.459,301.466 71.151,299.781 72.694 C 298.736 73.651,297.464 74.646,296.953 74.905 C 296.442 75.165,295.942 75.634,295.843 75.947 C 295.743 76.261,295.151 76.756,294.527 77.046 C 293.903 77.337,293.261 77.858,293.100 78.204 C 292.939 78.549,292.144 79.193,291.333 79.635 C 290.522 80.076,289.788 80.658,289.703 80.928 C 289.617 81.199,288.943 81.721,288.205 82.090 C 287.467 82.458,286.450 83.109,285.945 83.535 C 285.023 84.312,284.365 84.666,282.636 85.315 C 282.125 85.507,281.644 85.829,281.567 86.030 C 281.384 86.506,279.195 87.520,277.802 87.773 C 277.204 87.882,276.539 88.223,276.323 88.530 C 275.868 89.180,273.449 90.285,272.481 90.285 C 272.116 90.285,271.371 90.610,270.825 91.008 C 269.461 92.001,268.748 92.290,265.961 92.977 C 264.635 93.304,263.550 93.682,263.550 93.817 C 263.550 94.383,260.783 95.293,257.852 95.691 C 257.049 95.800,256.063 96.116,255.661 96.394 C 254.327 97.316,251.399 97.969,247.042 98.316 C 245.756 98.418,243.968 98.750,243.069 99.052 C 239.413 100.283,228.424 100.374,226.057 99.194 C 225.562 98.947,224.230 98.611,223.097 98.449 C 219.228 97.895,216.751 97.248,216.134 96.630 C 215.558 96.055,214.028 95.558,210.776 94.891 C 208.695 94.464,203.891 95.553,202.729 96.715 C 202.301 97.143,201.183 97.733,200.245 98.025 C 199.307 98.318,198.265 98.849,197.929 99.206 C 197.335 99.837,196.473 100.304,194.229 101.209 C 193.627 101.452,193.134 101.797,193.134 101.976 C 193.134 102.155,192.246 102.702,191.161 103.192 C 190.077 103.682,189.084 104.266,188.954 104.490 C 188.677 104.973,186.627 106.063,185.997 106.063 C 185.755 106.063,185.107 106.458,184.557 106.941 C 183.430 107.931,181.982 108.509,179.839 108.825 C 179.036 108.943,177.787 109.311,177.064 109.644 C 175.266 110.469,174.091 110.698,169.175 111.180 C 164.024 111.686,162.747 111.887,162.747 112.192 C 162.747 112.623,158.257 113.621,154.858 113.947 C 152.761 114.148,151.113 114.466,150.475 114.794 C 148.874 115.616,146.508 116.220,143.115 116.672 C 141.144 116.935,139.823 117.257,139.535 117.545 C 138.986 118.094,136.607 118.797,134.405 119.060 C 132.525 119.284,130.898 119.748,130.898 120.060 C 130.898 120.491,128.091 121.549,126.178 121.840 C 124.795 122.050,123.819 122.414,122.800 123.100 C 121.806 123.769,120.726 124.179,119.284 124.437 C 118.054 124.657,116.925 125.051,116.526 125.398 C 115.507 126.287,114.561 126.706,112.715 127.086 C 111.794 127.276,110.961 127.560,110.864 127.716 C 110.511 128.287,108.511 129.349,107.151 129.687 C 106.383 129.878,105.134 130.479,104.375 131.022 C 103.616 131.566,102.428 132.162,101.734 132.347 C 101.041 132.533,99.885 133.133,99.166 133.682 C 98.447 134.231,97.325 134.824,96.672 135.000 C 96.020 135.176,95.057 135.749,94.532 136.274 C 93.995 136.811,92.997 137.391,92.251 137.600 C 91.473 137.818,90.533 138.376,89.977 138.950 C 89.455 139.489,88.667 140.008,88.227 140.105 C 87.786 140.202,86.853 140.800,86.153 141.434 C 85.452 142.069,84.401 142.720,83.817 142.881 C 83.171 143.060,82.456 143.566,81.994 144.171 C 81.576 144.719,80.871 145.247,80.427 145.345 C 79.983 145.442,79.129 145.986,78.528 146.552 C 77.928 147.119,76.868 147.834,76.173 148.141 C 75.478 148.449,74.732 149.031,74.516 149.435 C 74.293 149.852,73.590 150.373,72.889 150.641 C 72.168 150.916,71.524 151.400,71.339 151.804 C 71.166 152.185,70.477 152.775,69.809 153.116 C 69.141 153.457,68.094 154.246,67.482 154.870 C 66.871 155.494,66.038 156.087,65.631 156.190 C 65.224 156.292,64.548 156.824,64.130 157.373 C 63.711 157.922,62.950 158.546,62.437 158.760 C 61.924 158.975,61.313 159.509,61.079 159.947 C 60.844 160.386,60.235 160.919,59.724 161.132 C 59.214 161.345,58.573 161.899,58.299 162.361 C 58.026 162.824,57.415 163.425,56.942 163.697 C 56.469 163.968,55.857 164.582,55.583 165.060 C 55.308 165.539,54.807 166.056,54.470 166.210 C 54.133 166.363,53.508 167.225,53.083 168.124 C 52.657 169.023,52.171 169.759,52.002 169.759 C 50.805 169.759,49.603 177.599,50.726 178.085 C 52.715 178.945,84.957 179.512,92.403 178.817 C 94.131 178.656,97.013 178.386,98.808 178.218 C 100.603 178.049,103.002 177.704,104.140 177.451 C 107.603 176.680,116.178 176.736,117.312 177.537 C 117.794 177.877,118.780 178.454,119.503 178.818 C 120.226 179.182,121.123 179.781,121.495 180.150 C 121.867 180.519,122.853 181.172,123.686 181.602 C 124.519 182.032,125.595 182.749,126.077 183.196 C 126.560 183.643,127.562 184.272,128.304 184.594 C 129.047 184.915,129.745 185.325,129.856 185.505 C 130.079 185.866,131.916 186.735,133.597 187.274 C 134.197 187.467,134.765 187.749,134.859 187.900 C 135.214 188.475,137.357 189.336,139.563 189.791 C 140.824 190.051,142.012 190.394,142.204 190.552 C 143.356 191.504,146.340 192.009,151.790 192.173 L 157.341 192.341 158.436 193.468 C 159.039 194.088,159.645 194.595,159.783 194.595 C 159.922 194.595,160.523 195.055,161.119 195.617 C 161.716 196.180,162.371 196.640,162.574 196.640 C 162.778 196.640,163.431 197.166,164.026 197.809 C 164.621 198.451,165.210 198.977,165.334 198.977 C 165.459 198.977,166.234 199.602,167.057 200.365 C 167.880 201.129,168.923 202.055,169.375 202.424 C 170.680 203.489,172.582 205.170,173.774 206.311 C 174.378 206.890,175.300 207.609,175.822 207.909 C 176.345 208.208,176.846 208.686,176.936 208.970 C 177.026 209.253,177.572 209.710,178.149 209.984 C 178.726 210.258,179.407 210.845,179.662 211.290 C 179.917 211.734,180.431 212.174,180.803 212.268 C 181.176 212.361,182.032 212.931,182.705 213.534 C 183.379 214.137,184.521 215.011,185.243 215.475 C 185.965 215.939,186.800 216.628,187.097 217.006 C 187.394 217.384,188.147 217.953,188.769 218.271 C 189.391 218.588,190.047 219.121,190.226 219.456 C 190.405 219.790,191.034 220.265,191.623 220.511 C 192.213 220.757,193.183 221.398,193.778 221.935 C 194.373 222.472,195.359 223.168,195.969 223.481 C 196.579 223.795,197.458 224.452,197.923 224.941 C 198.387 225.430,199.148 225.913,199.613 226.016 C 200.078 226.118,200.670 226.525,200.930 226.921 C 201.189 227.316,202.203 228.020,203.184 228.484 C 204.165 228.948,205.330 229.720,205.774 230.200 C 206.218 230.680,206.958 231.155,207.418 231.256 C 207.878 231.357,208.566 231.773,208.948 232.181 C 209.629 232.907,212.288 234.332,212.964 234.332 C 213.152 234.332,213.453 234.651,213.631 235.042 C 213.809 235.433,214.332 235.893,214.793 236.065 C 215.254 236.237,215.993 236.513,216.435 236.678 C 216.877 236.844,217.763 237.436,218.404 237.993 C 219.045 238.551,219.694 239.007,219.846 239.007 C 219.998 239.007,220.683 239.278,221.369 239.610 L 222.616 240.214 223.452 239.595 C 225.187 238.313,226.383 232.291,225.069 231.459 C 224.899 231.351,224.527 230.541,224.241 229.657 C 223.956 228.773,223.625 227.787,223.507 227.465 C 223.389 227.144,223.133 226.292,222.937 225.571 C 222.740 224.851,222.347 224.098,222.062 223.899 C 221.778 223.699,221.182 222.842,220.740 221.995 C 220.297 221.147,219.427 219.944,218.806 219.323 C 218.185 218.701,217.677 218.020,217.677 217.808 C 217.677 217.596,217.150 217.053,216.506 216.600 C 215.861 216.148,215.255 215.481,215.159 215.119 C 215.060 214.749,214.530 214.245,213.948 213.969 C 213.378 213.698,212.704 213.114,212.449 212.669 C 212.194 212.225,211.716 211.794,211.388 211.712 C 211.060 211.629,209.951 210.834,208.923 209.945 C 207.896 209.055,206.877 208.327,206.659 208.327 C 206.441 208.327,205.845 207.900,205.335 207.378 C 204.825 206.855,203.876 206.190,203.226 205.900 C 202.577 205.609,201.717 205.057,201.315 204.674 C 200.913 204.290,199.842 203.648,198.935 203.247 C 198.027 202.846,196.949 202.181,196.537 201.770 C 196.126 201.359,195.547 201.023,195.251 201.023 C 194.954 201.023,194.587 200.907,194.434 200.766 C 194.281 200.624,193.675 200.355,193.086 200.167 C 192.498 199.979,191.947 199.645,191.862 199.424 C 191.673 198.929,190.308 198.296,188.107 197.681 C 187.191 197.425,186.270 196.987,186.062 196.708 C 185.662 196.172,183.486 195.344,181.698 195.048 C 181.114 194.952,180.061 194.434,179.360 193.899 C 178.658 193.363,177.296 192.703,176.332 192.432 C 173.054 191.510,172.600 191.150,172.804 189.634 C 173.030 187.953,173.319 187.693,175.719 187.006 C 176.813 186.694,178.155 186.096,178.702 185.679 C 179.249 185.261,180.425 184.669,181.314 184.363 C 182.203 184.058,183.415 183.408,184.008 182.919 C 184.601 182.430,185.196 182.031,185.330 182.031 C 185.779 182.031,188.693 180.607,188.887 180.293 C 188.992 180.123,189.892 179.581,190.887 179.088 C 191.882 178.596,192.958 177.949,193.280 177.652 C 193.601 177.355,194.587 176.790,195.471 176.397 C 196.355 176.003,197.397 175.335,197.787 174.912 C 198.176 174.488,198.637 174.142,198.811 174.142 C 199.241 174.142,201.921 172.701,202.421 172.201 C 202.641 171.980,203.531 171.452,204.397 171.028 C 205.263 170.604,206.232 170.015,206.550 169.719 C 206.867 169.423,207.837 168.867,208.705 168.483 C 209.573 168.099,210.542 167.507,210.860 167.166 C 211.177 166.826,212.180 166.245,213.088 165.875 C 213.996 165.506,215.074 164.912,215.483 164.556 C 215.893 164.200,217.077 163.508,218.115 163.017 C 219.153 162.527,220.078 162.004,220.169 161.856 C 220.261 161.708,221.282 161.114,222.439 160.536 C 223.597 159.957,224.806 159.248,225.128 158.959 C 225.449 158.670,226.304 158.173,227.027 157.855 C 227.750 157.537,228.759 156.897,229.269 156.432 C 230.627 155.195,230.931 154.969,231.940 154.447 C 232.442 154.188,232.987 153.726,233.149 153.422 C 233.312 153.118,234.039 152.582,234.765 152.230 C 235.491 151.879,236.085 151.477,236.085 151.337 C 236.085 150.987,237.614 149.598,237.999 149.598 C 238.172 149.598,238.688 149.206,239.147 148.727 C 239.606 148.248,240.513 147.492,241.161 147.047 C 241.810 146.602,242.675 145.894,243.084 145.474 C 243.493 145.054,244.358 144.441,245.006 144.113 C 245.654 143.784,246.363 143.182,246.581 142.774 C 246.799 142.366,247.485 141.829,248.106 141.581 C 248.726 141.333,249.233 141.017,249.233 140.880 C 249.233 140.406,250.258 139.461,251.311 138.965 C 251.891 138.691,252.509 138.154,252.683 137.772 C 252.857 137.390,253.471 136.853,254.048 136.579 C 254.625 136.306,255.216 135.859,255.362 135.587 C 255.507 135.315,256.193 134.712,256.885 134.247 C 257.578 133.783,258.764 132.839,259.520 132.150 C 260.276 131.462,261.083 130.898,261.311 130.898 C 261.540 130.898,262.088 130.426,262.529 129.848 C 262.969 129.270,263.697 128.670,264.147 128.513 C 264.596 128.356,265.270 127.778,265.645 127.228 C 266.019 126.678,266.496 126.227,266.705 126.226 C 266.913 126.224,267.741 125.566,268.545 124.763 C 269.348 123.959,270.117 123.302,270.253 123.302 C 270.389 123.302,270.942 122.886,271.481 122.378 C 272.020 121.870,273.053 121.077,273.775 120.616 C 274.497 120.155,275.352 119.472,275.674 119.099 C 275.996 118.726,276.654 118.214,277.137 117.962 C 277.619 117.709,278.269 117.154,278.582 116.728 C 278.895 116.301,279.537 115.753,280.008 115.509 C 280.480 115.265,281.369 114.552,281.984 113.924 C 282.600 113.297,283.218 112.783,283.357 112.783 C 283.497 112.783,284.193 112.259,284.903 111.618 C 285.613 110.977,286.615 110.251,287.129 110.005 C 287.642 109.758,288.329 109.182,288.655 108.725 C 288.981 108.267,289.635 107.732,290.110 107.536 C 290.585 107.339,291.306 106.675,291.713 106.059 C 292.121 105.444,292.698 104.863,292.997 104.768 C 293.295 104.674,293.755 104.144,294.019 103.591 C 294.283 103.038,294.826 102.370,295.227 102.108 C 295.628 101.845,296.312 101.017,296.748 100.267 C 297.183 99.518,297.813 98.631,298.149 98.297 C 299.060 97.388,299.595 96.655,299.987 95.779 C 300.180 95.345,300.662 94.779,301.058 94.520 C 301.453 94.261,301.992 93.510,302.255 92.852 C 302.518 92.195,303.166 91.151,303.694 90.535 C 304.222 89.918,304.803 88.915,304.985 88.308 C 305.167 87.700,305.748 86.731,306.275 86.156 C 306.803 85.579,307.399 84.492,307.601 83.736 C 307.803 82.981,308.263 82.066,308.623 81.704 C 309.430 80.891,309.892 79.979,310.288 78.418 C 310.456 77.756,310.982 76.726,311.457 76.128 C 312.352 75.002,312.382 74.935,312.937 72.754 C 313.121 72.031,313.570 71.110,313.933 70.709 C 314.648 69.919,315.559 67.812,315.559 66.947 C 315.559 66.653,315.881 65.965,316.276 65.419 C 317.177 64.171,318.188 62.115,318.188 61.531 C 318.188 61.287,318.554 60.655,319.001 60.127 C 319.816 59.165,320.476 57.937,321.120 56.182 C 321.310 55.665,321.702 55.167,321.991 55.075 C 322.281 54.983,322.786 54.336,323.115 53.637 C 324.382 50.942,327.236 50.126,338.057 49.366 C 342.130 49.080,344.303 48.713,344.923 48.207 C 345.278 47.918,347.728 47.495,351.644 47.047 C 357.629 46.361,358.944 46.139,359.611 45.703 C 360.359 45.212,364.787 44.307,368.006 43.986 C 369.408 43.846,370.372 43.567,371.074 43.098 C 371.685 42.690,373.154 42.212,374.726 41.910 C 378.663 41.155,379.481 40.930,379.931 40.480 C 380.418 39.993,383.745 38.860,384.690 38.860 C 385.590 38.860,386.874 38.349,387.582 37.708 C 388.094 37.245,390.669 36.334,393.039 35.777 C 393.470 35.676,393.894 35.406,393.982 35.177 C 394.070 34.947,394.934 34.416,395.902 33.996 C 397.998 33.087,398.015 33.029,396.421 32.140 C 395.738 31.759,394.850 31.096,394.449 30.667 C 393.956 30.141,393.176 29.772,392.056 29.536 C 391.142 29.343,389.959 28.867,389.426 28.479 C 387.925 27.383,387.454 27.243,383.595 26.743 C 381.610 26.486,379.507 26.148,378.922 25.991 C 377.444 25.596,371.554 25.568,370.570 25.951 C 370.124 26.124,367.787 26.476,365.376 26.732 C 360.817 27.217,359.875 27.455,358.295 28.520 C 357.776 28.870,356.473 29.310,355.400 29.496 C 353.365 29.851,352.174 30.337,351.370 31.141 C 351.108 31.402,350.143 31.805,349.224 32.035 C 347.226 32.536,346.340 32.952,345.501 33.786 C 345.156 34.128,344.106 34.631,343.168 34.904 C 342.136 35.204,341.163 35.720,340.704 36.213 C 340.286 36.660,339.618 37.118,339.220 37.231 C 337.951 37.591,337.059 38.079,336.157 38.907 C 334.143 40.755,331.917 40.736,330.897 38.860 C 329.790 36.825,328.707 34.318,328.707 33.793 C 328.707 32.412,327.742 29.812,327.064 29.368 C 326.682 29.118,326.368 28.751,326.367 28.554 C 326.352 26.566,322.449 22.378,319.863 21.577 C 318.862 21.267,317.474 20.739,316.780 20.405 C 314.758 19.430,310.105 19.026,308.337 19.672 M95.398 203.045 C 94.451 203.441,93.328 204.727,92.435 206.436 C 91.975 207.315,91.506 208.034,91.392 208.034 C 90.999 208.036,89.993 209.314,89.993 209.812 C 89.993 210.086,89.578 210.752,89.072 211.291 C 88.566 211.831,87.803 212.995,87.377 213.879 C 86.951 214.763,86.199 215.908,85.706 216.425 C 85.214 216.941,84.735 217.742,84.643 218.203 C 84.550 218.665,84.018 219.589,83.459 220.258 C 82.900 220.927,82.225 222.132,81.958 222.936 C 81.691 223.739,81.238 224.561,80.952 224.762 C 79.416 225.840,78.445 230.237,79.624 230.774 C 81.380 231.574,85.222 231.059,88.067 229.641 C 89.017 229.167,90.043 228.780,90.348 228.780 C 91.149 228.780,93.501 227.653,93.682 227.183 C 93.766 226.962,94.546 226.422,95.415 225.983 C 96.284 225.543,97.072 224.940,97.167 224.641 C 97.261 224.343,97.691 223.906,98.122 223.670 C 98.552 223.434,99.655 222.416,100.573 221.408 C 101.491 220.401,102.829 218.936,103.545 218.154 C 104.262 217.372,104.933 216.392,105.038 215.975 C 105.142 215.559,105.567 214.884,105.982 214.476 C 106.397 214.067,107.108 212.921,107.562 211.928 C 108.015 210.935,108.522 210.040,108.688 209.937 C 109.141 209.657,110.153 207.429,110.153 206.711 C 110.153 205.736,109.314 205.220,107.085 204.827 C 105.961 204.628,103.725 204.160,102.118 203.787 C 98.640 202.979,96.200 202.709,95.398 203.045 " stroke="none" fill="#094096" fill-rule="evenodd"></path><path id="path1" d="M0.000 146.092 L 0.000 292.184 200.000 292.184 L 400.000 292.184 400.000 163.477 L 400.000 34.770 399.144 34.770 C 398.674 34.770,398.115 34.939,397.903 35.146 C 396.922 36.100,395.392 37.080,394.595 37.265 C 392.406 37.772,390.759 38.388,390.344 38.856 C 389.821 39.443,388.565 39.893,386.212 40.335 C 385.298 40.507,384.246 40.883,383.875 41.171 C 382.641 42.128,381.886 42.395,379.171 42.832 C 377.342 43.127,376.127 43.499,375.381 43.991 C 374.228 44.752,373.107 45.036,369.028 45.599 C 367.520 45.807,365.849 46.268,364.772 46.773 C 363.411 47.412,362.257 47.677,359.805 47.917 C 354.239 48.459,352.819 48.707,351.484 49.366 C 350.160 50.020,349.877 50.060,339.956 50.981 C 335.794 51.367,333.885 51.740,332.938 52.352 C 332.775 52.458,331.263 52.702,329.578 52.894 C 326.194 53.281,324.617 53.786,324.617 54.483 C 324.617 54.996,323.352 57.112,322.866 57.413 C 322.694 57.519,322.281 58.220,321.948 58.971 C 320.864 61.422,320.731 61.639,320.218 61.802 C 319.919 61.897,319.630 62.395,319.514 63.013 C 319.221 64.575,318.036 67.086,317.494 67.294 C 317.233 67.394,317.020 67.660,317.020 67.886 C 317.020 68.857,315.774 72.072,315.136 72.747 C 314.754 73.153,314.155 74.430,313.807 75.586 C 313.459 76.742,312.875 77.991,312.510 78.362 C 312.145 78.733,311.557 79.912,311.203 80.984 C 310.849 82.056,310.262 83.239,309.898 83.614 C 309.534 83.988,308.930 85.061,308.556 85.996 C 308.183 86.932,307.567 87.900,307.189 88.148 C 306.811 88.396,306.501 88.788,306.501 89.020 C 306.501 89.804,305.344 91.987,304.631 92.547 C 304.241 92.854,303.707 93.621,303.443 94.252 C 303.180 94.882,302.591 95.793,302.133 96.275 C 301.675 96.757,301.032 97.661,300.704 98.283 C 300.376 98.906,299.673 99.830,299.141 100.336 C 298.609 100.842,297.943 101.692,297.660 102.226 C 297.377 102.760,296.883 103.266,296.562 103.350 C 296.240 103.434,295.759 103.963,295.492 104.525 C 295.225 105.087,294.620 105.783,294.147 106.070 C 293.674 106.358,293.136 106.897,292.951 107.269 C 292.765 107.640,292.164 108.248,291.614 108.618 C 291.064 108.989,290.348 109.666,290.023 110.124 C 289.698 110.582,289.024 111.104,288.526 111.284 C 288.028 111.464,287.330 112.005,286.975 112.485 C 286.620 112.965,285.905 113.577,285.386 113.846 C 284.866 114.114,283.949 114.807,283.347 115.385 C 282.744 115.963,281.863 116.572,281.387 116.738 C 280.912 116.905,280.221 117.488,279.852 118.035 C 279.461 118.614,278.817 119.123,278.305 119.256 C 277.821 119.381,277.298 119.779,277.137 120.143 C 276.976 120.507,276.384 121.098,275.822 121.457 C 275.259 121.816,274.254 122.641,273.588 123.290 C 272.922 123.939,272.232 124.470,272.054 124.470 C 271.876 124.470,271.238 124.977,270.635 125.597 C 270.033 126.217,269.010 126.994,268.362 127.324 C 267.714 127.654,267.003 128.261,266.782 128.673 C 266.562 129.085,265.950 129.564,265.423 129.738 C 264.847 129.929,264.236 130.443,263.890 131.029 C 263.541 131.621,262.932 132.130,262.337 132.328 C 261.778 132.514,261.152 133.017,260.877 133.501 C 260.612 133.968,259.917 134.576,259.333 134.853 C 258.749 135.131,258.151 135.580,258.006 135.852 C 257.860 136.124,257.175 136.727,256.482 137.192 C 255.789 137.656,254.604 138.600,253.847 139.289 C 253.091 139.977,252.203 140.541,251.875 140.541 C 251.547 140.541,251.274 140.705,251.269 140.906 C 251.252 141.532,250.189 142.589,249.244 142.918 C 248.738 143.094,248.144 143.609,247.898 144.085 C 247.631 144.603,247.004 145.119,246.300 145.400 C 245.663 145.655,245.142 145.975,245.142 146.110 C 245.142 146.500,243.744 147.798,242.798 148.287 C 242.325 148.532,241.485 149.185,240.931 149.739 C 240.377 150.293,239.588 150.830,239.178 150.933 C 238.768 151.036,238.152 151.573,237.811 152.126 C 237.404 152.784,236.888 153.192,236.320 153.306 C 235.776 153.414,235.216 153.839,234.822 154.440 C 234.476 154.968,233.752 155.610,233.215 155.866 C 232.677 156.123,231.930 156.698,231.554 157.144 C 231.179 157.590,230.368 158.211,229.753 158.524 C 229.138 158.838,228.094 159.573,227.434 160.158 C 226.774 160.742,225.821 161.312,225.316 161.423 C 224.811 161.533,224.397 161.739,224.397 161.879 C 224.397 162.019,223.773 162.563,223.009 163.088 C 222.246 163.613,221.249 164.375,220.793 164.782 C 220.337 165.189,219.351 165.866,218.601 166.286 C 216.586 167.416,214.165 169.097,212.981 170.187 C 212.407 170.715,211.650 171.239,211.299 171.350 C 210.949 171.461,210.286 171.868,209.828 172.254 C 209.369 172.640,208.351 173.284,207.565 173.685 C 206.779 174.086,205.690 174.879,205.145 175.447 C 204.600 176.015,204.003 176.479,203.817 176.479 C 203.631 176.479,202.578 177.071,201.477 177.794 C 200.376 178.517,199.294 179.109,199.074 179.109 C 198.853 179.109,198.099 179.637,197.398 180.283 C 196.645 180.978,195.543 181.631,194.702 181.883 C 193.914 182.119,192.922 182.690,192.478 183.164 C 192.037 183.635,191.102 184.216,190.400 184.455 C 189.247 184.848,188.509 185.313,187.447 186.317 C 187.249 186.505,186.558 186.801,185.914 186.975 C 185.269 187.149,184.173 187.741,183.478 188.291 C 182.783 188.841,181.767 189.375,181.220 189.477 C 178.387 190.009,178.063 190.772,180.228 191.814 C 181.139 192.253,182.082 192.842,182.323 193.123 C 182.564 193.404,183.747 193.862,184.953 194.141 C 186.335 194.461,187.525 194.948,188.178 195.462 C 188.747 195.910,190.049 196.523,191.071 196.823 C 192.098 197.125,193.313 197.727,193.785 198.166 C 194.255 198.604,195.363 199.190,196.247 199.469 C 197.310 199.804,198.052 200.252,198.436 200.791 C 198.756 201.240,199.214 201.607,199.454 201.607 C 200.336 201.607,203.022 203.049,203.203 203.619 C 203.307 203.946,203.847 204.352,204.435 204.546 C 205.011 204.736,205.958 205.303,206.539 205.806 C 207.686 206.797,208.261 207.180,209.704 207.909 C 210.221 208.170,210.717 208.618,210.808 208.904 C 210.899 209.189,211.566 209.736,212.290 210.117 C 213.061 210.523,213.675 211.078,213.771 211.454 C 213.861 211.808,214.415 212.345,215.003 212.648 C 215.590 212.950,216.237 213.539,216.442 213.957 C 216.646 214.374,217.259 214.991,217.804 215.328 C 218.349 215.664,218.924 216.312,219.082 216.766 C 219.241 217.221,219.835 217.879,220.402 218.230 C 221.073 218.645,221.501 219.174,221.626 219.743 C 221.732 220.225,222.211 221.041,222.690 221.558 C 223.749 222.699,224.253 223.642,224.500 224.938 C 224.603 225.476,225.083 226.417,225.567 227.028 C 227.502 229.471,227.659 239.534,225.792 241.454 C 224.168 243.124,221.667 243.011,220.490 241.213 C 220.183 240.744,219.644 240.478,218.723 240.340 C 217.742 240.193,217.095 239.851,216.235 239.024 C 215.557 238.374,214.654 237.829,214.071 237.720 C 213.520 237.616,212.585 237.075,211.992 236.516 C 211.400 235.957,210.839 235.500,210.746 235.500 C 210.073 235.500,207.472 233.880,207.205 233.294 C 207.012 232.872,206.632 232.579,206.277 232.579 C 205.455 232.579,203.370 231.484,203.163 230.944 C 203.070 230.702,202.207 230.107,201.245 229.622 C 200.248 229.118,199.433 228.497,199.349 228.177 C 199.259 227.833,198.788 227.504,198.131 227.327 C 197.541 227.169,196.583 226.609,196.000 226.083 C 194.702 224.911,194.143 224.531,192.888 223.967 C 192.351 223.726,191.847 223.279,191.767 222.974 C 191.685 222.659,191.053 222.185,190.303 221.875 C 189.511 221.549,188.822 221.019,188.580 220.551 C 188.342 220.091,187.835 219.696,187.342 219.588 C 186.883 219.487,185.967 218.917,185.306 218.322 C 183.439 216.638,183.109 216.387,182.275 216.015 C 181.847 215.824,181.411 215.396,181.305 215.063 C 181.200 214.731,180.540 214.198,179.839 213.879 C 179.129 213.555,178.479 213.027,178.371 212.685 C 178.264 212.348,177.736 211.889,177.199 211.664 C 176.662 211.440,175.874 210.799,175.448 210.241 C 175.022 209.683,174.397 209.139,174.058 209.031 C 173.719 208.924,172.874 208.303,172.179 207.652 C 171.485 207.001,170.635 206.262,170.291 206.010 C 169.946 205.758,169.165 205.069,168.555 204.480 C 167.945 203.890,167.046 203.171,166.557 202.882 C 166.068 202.593,165.594 202.125,165.504 201.842 C 165.414 201.559,164.809 201.010,164.160 200.622 C 163.510 200.235,162.825 199.608,162.637 199.229 C 162.144 198.235,160.943 198.206,159.030 199.142 C 157.966 199.663,156.644 200.013,155.184 200.161 C 153.453 200.336,152.522 200.622,150.997 201.447 C 149.193 202.422,148.758 202.528,145.591 202.758 C 142.629 202.973,141.759 203.163,139.372 204.116 L 136.596 205.224 125.055 205.388 C 111.397 205.582,112.100 205.414,111.451 208.618 C 111.144 210.135,110.410 211.513,109.809 211.704 C 109.517 211.797,109.195 212.225,109.093 212.656 C 108.718 214.239,107.844 215.795,106.965 216.444 C 106.469 216.810,106.063 217.316,106.063 217.568 C 106.063 218.210,104.935 219.722,104.456 219.722 C 104.236 219.722,103.964 220.018,103.850 220.380 C 103.612 221.136,99.892 224.982,99.399 224.982 C 99.219 224.982,98.916 225.272,98.726 225.627 C 98.250 226.516,97.301 227.242,96.371 227.430 C 95.931 227.519,95.508 227.848,95.401 228.187 C 95.191 228.847,93.375 229.836,91.843 230.123 C 91.303 230.225,90.764 230.469,90.646 230.667 C 89.267 232.969,77.360 233.270,76.339 231.028 C 75.990 230.261,76.465 228.515,77.262 227.634 C 77.523 227.346,78.006 226.336,78.336 225.389 C 78.672 224.428,79.314 223.319,79.790 222.880 C 80.259 222.447,80.643 221.830,80.643 221.509 C 80.643 221.188,80.764 220.851,80.913 220.759 C 81.061 220.667,81.268 220.201,81.373 219.723 C 81.478 219.245,81.918 218.602,82.350 218.294 C 82.803 217.972,83.361 217.110,83.666 216.263 C 83.957 215.453,84.532 214.427,84.945 213.982 C 85.358 213.536,86.013 212.540,86.401 211.767 C 86.789 210.995,87.427 210.152,87.819 209.896 C 88.211 209.639,88.532 209.267,88.532 209.069 C 88.532 208.468,89.362 207.001,90.208 206.105 C 92.274 203.919,92.090 203.315,88.824 201.567 C 87.156 200.674,86.134 200.338,84.544 200.160 C 82.849 199.969,82.148 199.721,80.821 198.840 C 79.587 198.021,78.679 197.676,77.121 197.435 C 75.424 197.172,74.875 196.944,74.031 196.148 C 72.981 195.157,72.629 195.021,70.516 194.790 C 69.664 194.697,68.980 194.364,68.226 193.676 C 67.452 192.970,66.665 192.595,65.415 192.337 C 64.205 192.088,63.395 191.711,62.738 191.093 C 61.885 190.289,60.372 189.633,59.362 189.629 C 59.148 189.628,58.515 189.157,57.956 188.581 C 57.386 187.993,56.339 187.338,55.570 187.087 C 54.749 186.819,53.766 186.185,53.116 185.504 C 52.520 184.879,51.863 184.368,51.655 184.368 C 50.525 184.366,47.490 180.795,47.338 179.288 C 47.097 176.905,47.476 174.539,48.295 173.324 C 48.696 172.729,49.115 171.723,49.226 171.087 C 49.484 169.609,50.338 167.957,51.071 167.515 C 51.386 167.325,51.732 166.815,51.841 166.380 C 52.076 165.444,57.607 159.898,58.538 159.664 C 58.887 159.576,59.399 159.111,59.675 158.630 C 59.951 158.149,60.646 157.559,61.219 157.320 C 61.792 157.080,62.345 156.658,62.449 156.382 C 62.676 155.777,63.247 155.298,64.457 154.697 C 64.956 154.449,65.524 153.949,65.719 153.586 C 65.913 153.222,66.526 152.680,67.080 152.382 C 67.634 152.083,68.645 151.334,69.325 150.717 C 70.006 150.099,71.046 149.446,71.636 149.264 C 72.360 149.042,72.765 148.717,72.878 148.268 C 72.988 147.828,73.524 147.385,74.448 146.967 C 75.220 146.618,76.096 145.968,76.396 145.523 C 76.695 145.078,77.381 144.554,77.922 144.359 C 78.462 144.164,79.495 143.492,80.218 142.866 C 80.942 142.240,82.056 141.587,82.695 141.415 C 83.334 141.243,83.857 140.931,83.857 140.721 C 83.857 140.114,84.812 139.409,86.339 138.889 C 87.143 138.615,88.107 138.001,88.581 137.461 C 89.075 136.899,89.810 136.440,90.392 136.330 C 90.955 136.225,91.856 135.676,92.509 135.042 C 93.361 134.212,94.064 133.844,95.325 133.565 C 96.296 133.351,97.005 133.037,97.005 132.822 C 97.005 132.154,98.012 131.517,99.789 131.061 C 101.001 130.750,101.779 130.344,102.337 129.729 C 102.939 129.067,103.631 128.731,105.099 128.391 C 106.324 128.107,107.207 127.724,107.455 127.370 C 108.006 126.584,109.186 126.025,110.808 125.781 C 111.700 125.648,112.625 125.232,113.434 124.603 C 114.338 123.899,115.284 123.506,116.867 123.176 C 118.312 122.875,119.472 122.419,120.294 121.829 C 121.181 121.192,122.162 120.827,123.717 120.557 C 124.915 120.349,126.265 119.930,126.717 119.627 C 128.341 118.536,129.030 118.291,131.523 117.921 C 133.413 117.640,134.432 117.311,135.551 116.623 C 136.820 115.842,137.508 115.653,140.037 115.390 C 142.443 115.140,143.428 114.884,145.099 114.076 C 146.908 113.201,147.677 113.022,151.089 112.680 C 154.390 112.350,155.314 112.143,156.983 111.358 C 158.777 110.515,159.403 110.393,163.709 110.050 C 167.745 109.730,168.713 109.556,170.166 108.890 C 171.980 108.060,173.887 107.691,177.985 107.377 C 180.188 107.209,180.601 107.088,181.199 106.439 C 182.042 105.523,183.942 104.617,185.039 104.608 C 185.638 104.604,185.989 104.368,186.354 103.724 C 186.685 103.141,187.293 102.690,188.167 102.378 C 190.821 101.431,191.088 101.312,191.088 101.081 C 191.088 100.606,192.019 99.935,193.074 99.649 C 193.669 99.488,194.781 98.839,195.545 98.206 C 196.405 97.494,197.376 96.981,198.095 96.860 C 198.762 96.747,199.538 96.359,199.920 95.945 C 200.819 94.972,201.792 94.486,203.360 94.227 C 204.083 94.108,205.217 93.622,205.879 93.148 C 208.172 91.505,211.190 91.509,212.995 93.157 C 213.728 93.826,214.400 94.087,216.099 94.361 C 217.536 94.593,218.538 94.935,219.068 95.373 C 220.978 96.954,229.084 97.557,241.185 97.019 L 248.503 96.694 250.548 95.709 C 251.673 95.167,253.251 94.638,254.054 94.534 C 258.601 93.946,259.321 93.759,260.288 92.915 C 260.929 92.355,261.723 92.003,262.623 91.880 C 265.064 91.545,266.770 90.934,267.974 89.963 C 268.399 89.621,269.253 89.231,269.873 89.096 C 270.493 88.961,271.395 88.762,271.877 88.655 C 272.359 88.548,273.148 88.093,273.630 87.644 C 274.112 87.195,275.099 86.679,275.822 86.498 C 277.856 85.986,278.624 85.626,279.274 84.879 C 279.625 84.476,280.616 83.982,281.668 83.687 C 282.890 83.344,283.612 82.957,283.927 82.476 C 284.181 82.088,284.963 81.501,285.664 81.171 C 286.365 80.841,287.323 80.213,287.791 79.775 C 288.888 78.751,290.018 78.014,290.494 78.011 C 290.700 78.010,291.082 77.635,291.343 77.177 C 291.603 76.719,292.326 76.095,292.950 75.791 C 293.573 75.486,294.255 74.876,294.464 74.434 C 294.674 73.992,295.048 73.630,295.294 73.630 C 295.541 73.630,296.362 73.006,297.119 72.243 C 297.875 71.479,298.845 70.609,299.275 70.309 C 299.704 70.009,300.132 69.523,300.225 69.228 C 300.319 68.934,300.633 68.618,300.923 68.526 C 301.500 68.342,301.444 68.394,309.808 60.261 C 312.991 57.167,315.981 54.435,316.453 54.191 C 316.925 53.947,317.312 53.600,317.312 53.421 C 317.312 53.241,317.710 52.714,318.198 52.248 L 319.083 51.402 318.198 50.657 C 317.710 50.247,317.312 49.723,317.312 49.492 C 317.312 49.261,316.986 48.948,316.587 48.797 C 315.566 48.409,310.336 43.019,309.849 41.853 C 309.626 41.321,309.074 40.574,308.621 40.193 C 308.067 39.727,307.619 38.891,307.255 37.646 C 306.958 36.627,306.403 35.457,306.024 35.047 C 304.981 33.920,304.703 31.653,304.804 25.088 L 304.894 19.228 305.771 18.527 C 307.650 17.024,318.310 17.652,320.456 19.392 C 320.896 19.749,321.814 20.284,322.495 20.582 C 323.252 20.912,323.957 21.503,324.311 22.103 C 324.629 22.642,325.031 23.083,325.204 23.083 C 325.733 23.083,326.848 24.375,327.065 25.239 C 327.178 25.687,327.574 26.339,327.947 26.687 C 328.856 27.536,329.414 28.732,329.851 30.763 C 330.051 31.692,330.444 32.678,330.725 32.954 C 331.354 33.572,331.868 34.832,332.319 36.864 C 332.691 38.538,333.567 39.189,333.872 38.020 C 334.056 37.317,335.526 36.383,336.925 36.079 C 337.467 35.962,338.396 35.429,338.989 34.896 C 339.582 34.363,340.750 33.724,341.583 33.476 C 342.417 33.229,343.247 32.837,343.427 32.606 C 343.960 31.924,345.748 31.056,347.091 30.829 C 347.780 30.713,348.558 30.355,348.824 30.033 C 349.460 29.262,351.294 28.480,353.098 28.211 C 354.037 28.071,354.869 27.715,355.449 27.206 C 356.384 26.385,357.864 25.971,361.694 25.459 C 362.882 25.300,363.937 25.037,364.037 24.875 C 365.345 22.758,381.245 22.583,384.422 24.651 C 385.118 25.104,386.196 25.454,387.290 25.582 C 389.499 25.841,391.113 26.459,392.340 27.516 C 392.868 27.970,393.629 28.342,394.031 28.342 C 394.845 28.342,395.788 28.876,397.496 30.304 C 398.128 30.832,398.949 31.264,399.322 31.264 L 400.000 31.264 400.000 15.632 L 400.000 0.000 200.000 0.000 L 0.000 0.000 0.000 146.092 " stroke="none" fill="#f3f3f3" fill-rule="evenodd"></path><path id="path2" d="M305.771 18.527 L 304.894 19.228 304.804 25.088 C 304.703 31.653,304.981 33.920,306.024 35.047 C 306.403 35.457,306.958 36.627,307.255 37.646 C 307.619 38.891,308.067 39.727,308.621 40.193 C 309.074 40.574,309.626 41.321,309.849 41.853 C 310.336 43.019,315.566 48.409,316.587 48.797 C 316.986 48.948,317.312 49.261,317.312 49.492 C 317.312 49.723,317.710 50.247,318.198 50.657 L 319.083 51.402 318.198 52.248 C 317.710 52.714,317.312 53.241,317.312 53.421 C 317.312 53.600,316.925 53.947,316.453 54.191 C 315.981 54.435,312.991 57.167,309.808 60.261 C 301.444 68.394,301.500 68.342,300.923 68.526 C 300.633 68.618,300.319 68.934,300.225 69.228 C 300.132 69.523,299.704 70.009,299.275 70.309 C 298.845 70.609,297.875 71.479,297.119 72.243 C 296.362 73.006,295.541 73.630,295.294 73.630 C 295.048 73.630,294.674 73.992,294.464 74.434 C 294.255 74.876,293.573 75.486,292.950 75.791 C 292.326 76.095,291.603 76.719,291.343 77.177 C 291.082 77.635,290.700 78.010,290.494 78.011 C 290.018 78.014,288.888 78.751,287.791 79.775 C 287.323 80.213,286.365 80.841,285.664 81.171 C 284.963 81.501,284.181 82.088,283.927 82.476 C 283.612 82.957,282.890 83.344,281.668 83.687 C 280.616 83.982,279.625 84.476,279.274 84.879 C 278.624 85.626,277.856 85.986,275.822 86.498 C 275.099 86.679,274.112 87.195,273.630 87.644 C 273.148 88.093,272.359 88.548,271.877 88.655 C 271.395 88.762,270.493 88.961,269.873 89.096 C 269.253 89.231,268.399 89.621,267.974 89.963 C 266.770 90.934,265.064 91.545,262.623 91.880 C 261.723 92.003,260.929 92.355,260.288 92.915 C 259.321 93.759,258.601 93.946,254.054 94.534 C 253.251 94.638,251.673 95.167,250.548 95.709 L 248.503 96.694 241.185 97.019 C 229.084 97.557,220.978 96.954,219.068 95.373 C 218.538 94.935,217.536 94.593,216.099 94.361 C 214.400 94.087,213.728 93.826,212.995 93.157 C 211.190 91.509,208.172 91.505,205.879 93.148 C 205.217 93.622,204.083 94.108,203.360 94.227 C 201.792 94.486,200.819 94.972,199.920 95.945 C 199.538 96.359,198.762 96.747,198.095 96.860 C 197.376 96.981,196.405 97.494,195.545 98.206 C 194.781 98.839,193.669 99.488,193.074 99.649 C 192.019 99.935,191.088 100.606,191.088 101.081 C 191.088 101.312,190.821 101.431,188.167 102.378 C 187.293 102.690,186.685 103.141,186.354 103.724 C 185.989 104.368,185.638 104.604,185.039 104.608 C 183.942 104.617,182.042 105.523,181.199 106.439 C 180.601 107.088,180.188 107.209,177.985 107.377 C 173.887 107.691,171.980 108.060,170.166 108.890 C 168.713 109.556,167.745 109.730,163.709 110.050 C 159.403 110.393,158.777 110.515,156.983 111.358 C 155.314 112.143,154.390 112.350,151.089 112.680 C 147.677 113.022,146.908 113.201,145.099 114.076 C 143.428 114.884,142.443 115.140,140.037 115.390 C 137.508 115.653,136.820 115.842,135.551 116.623 C 134.432 117.311,133.413 117.640,131.523 117.921 C 129.030 118.291,128.341 118.536,126.717 119.627 C 126.265 119.930,124.915 120.349,123.717 120.557 C 122.162 120.827,121.181 121.192,120.294 121.829 C 119.472 122.419,118.312 122.875,116.867 123.176 C 115.284 123.506,114.338 123.899,113.434 124.603 C 112.625 125.232,111.700 125.648,110.808 125.781 C 109.186 126.025,108.006 126.584,107.455 127.370 C 107.207 127.724,106.324 128.107,105.099 128.391 C 103.631 128.731,102.939 129.067,102.337 129.729 C 101.779 130.344,101.001 130.750,99.789 131.061 C 98.012 131.517,97.005 132.154,97.005 132.822 C 97.005 133.037,96.296 133.351,95.325 133.565 C 94.064 133.844,93.361 134.212,92.509 135.042 C 91.856 135.676,90.955 136.225,90.392 136.330 C 89.810 136.440,89.075 136.899,88.581 137.461 C 88.107 138.001,87.143 138.615,86.339 138.889 C 84.812 139.409,83.857 140.114,83.857 140.721 C 83.857 140.931,83.334 141.243,82.695 141.415 C 82.056 141.587,80.942 142.240,80.218 142.866 C 79.495 143.492,78.462 144.164,77.922 144.359 C 77.381 144.554,76.695 145.078,76.396 145.523 C 76.096 145.968,75.220 146.618,74.448 146.967 C 73.524 147.385,72.988 147.828,72.878 148.268 C 72.765 148.717,72.360 149.042,71.636 149.264 C 71.046 149.446,70.006 150.099,69.325 150.717 C 68.645 151.334,67.634 152.083,67.080 152.382 C 66.526 152.680,65.913 153.222,65.719 153.586 C 65.524 153.949,64.956 154.449,64.457 154.697 C 63.247 155.298,62.676 155.777,62.449 156.382 C 62.345 156.658,61.792 157.080,61.219 157.320 C 60.646 157.559,59.951 158.149,59.675 158.630 C 59.399 159.111,58.887 159.576,58.538 159.664 C 57.607 159.898,52.076 165.444,51.841 166.380 C 51.732 166.815,51.386 167.325,51.071 167.515 C 50.338 167.957,49.484 169.609,49.226 171.087 C 49.115 171.723,48.696 172.729,48.295 173.324 C 47.476 174.539,47.097 176.905,47.338 179.288 C 47.490 180.795,50.525 184.366,51.655 184.368 C 51.863 184.368,52.520 184.879,53.116 185.504 C 53.766 186.185,54.749 186.819,55.570 187.087 C 56.339 187.338,57.386 187.993,57.956 188.581 C 58.515 189.157,59.148 189.628,59.362 189.629 C 60.372 189.633,61.885 190.289,62.738 191.093 C 63.395 191.711,64.205 192.088,65.415 192.337 C 66.665 192.595,67.452 192.970,68.226 193.676 C 68.980 194.364,69.664 194.697,70.516 194.790 C 72.629 195.021,72.981 195.157,74.031 196.148 C 74.875 196.944,75.424 197.172,77.121 197.435 C 78.679 197.676,79.587 198.021,80.821 198.840 C 82.148 199.721,82.849 199.969,84.544 200.160 C 86.134 200.338,87.156 200.674,88.824 201.567 C 92.090 203.315,92.274 203.919,90.208 206.105 C 89.362 207.001,88.532 208.468,88.532 209.069 C 88.532 209.267,88.211 209.639,87.819 209.896 C 87.427 210.152,86.789 210.995,86.401 211.767 C 86.013 212.540,85.358 213.536,84.945 213.982 C 84.532 214.427,83.957 215.453,83.666 216.263 C 83.361 217.110,82.803 217.972,82.350 218.294 C 81.918 218.602,81.478 219.245,81.373 219.723 C 81.268 220.201,81.061 220.667,80.913 220.759 C 80.764 220.851,80.643 221.188,80.643 221.509 C 80.643 221.830,80.259 222.447,79.790 222.880 C 79.314 223.319,78.672 224.428,78.336 225.389 C 78.006 226.336,77.523 227.346,77.262 227.634 C 76.465 228.515,75.990 230.261,76.339 231.028 C 77.360 233.270,89.267 232.969,90.646 230.667 C 90.764 230.469,91.303 230.225,91.843 230.123 C 93.375 229.836,95.191 228.847,95.401 228.187 C 95.508 227.848,95.931 227.519,96.371 227.430 C 97.301 227.242,98.250 226.516,98.726 225.627 C 98.916 225.272,99.219 224.982,99.399 224.982 C 99.892 224.982,103.612 221.136,103.850 220.380 C 103.964 220.018,104.236 219.722,104.456 219.722 C 104.935 219.722,106.063 218.210,106.063 217.568 C 106.063 217.316,106.469 216.810,106.965 216.444 C 107.844 215.795,108.718 214.239,109.093 212.656 C 109.195 212.225,109.517 211.797,109.809 211.704 C 110.410 211.513,111.144 210.135,111.451 208.618 C 112.100 205.414,111.397 205.582,125.055 205.388 L 136.596 205.224 139.372 204.116 C 141.759 203.163,142.629 202.973,145.591 202.758 C 148.758 202.528,149.193 202.422,150.997 201.447 C 152.522 200.622,153.453 200.336,155.184 200.161 C 156.644 200.013,157.966 199.663,159.030 199.142 C 160.943 198.206,162.144 198.235,162.637 199.229 C 162.825 199.608,163.510 200.235,164.160 200.622 C 164.809 201.010,165.414 201.559,165.504 201.842 C 165.594 202.125,166.068 202.593,166.557 202.882 C 167.046 203.171,167.945 203.890,168.555 204.480 C 169.165 205.069,169.946 205.758,170.291 206.010 C 170.635 206.262,171.485 207.001,172.179 207.652 C 172.874 208.303,173.719 208.924,174.058 209.031 C 174.397 209.139,175.022 209.683,175.448 210.241 C 175.874 210.799,176.662 211.440,177.199 211.664 C 177.736 211.889,178.264 212.348,178.371 212.685 C 178.478 213.023,179.122 213.552,179.805 213.863 C 180.486 214.174,181.192 214.753,181.374 215.150 C 181.555 215.548,181.988 215.964,182.336 216.074 C 182.995 216.283,183.307 216.520,185.306 218.322 C 185.967 218.917,186.883 219.487,187.342 219.588 C 187.835 219.696,188.342 220.091,188.580 220.551 C 188.822 221.019,189.511 221.549,190.303 221.875 C 191.053 222.185,191.685 222.659,191.767 222.974 C 191.847 223.279,192.351 223.726,192.888 223.967 C 194.143 224.531,194.702 224.911,196.000 226.083 C 196.583 226.609,197.541 227.169,198.131 227.327 C 198.788 227.504,199.259 227.833,199.349 228.177 C 199.433 228.497,200.248 229.118,201.245 229.622 C 202.207 230.107,203.070 230.702,203.163 230.944 C 203.370 231.484,205.455 232.579,206.277 232.579 C 206.632 232.579,207.012 232.872,207.205 233.294 C 207.472 233.880,210.073 235.500,210.746 235.500 C 210.839 235.500,211.400 235.957,211.992 236.516 C 212.585 237.075,213.520 237.616,214.071 237.720 C 214.654 237.829,215.557 238.374,216.235 239.024 C 217.095 239.851,217.742 240.193,218.723 240.340 C 219.644 240.478,220.183 240.744,220.490 241.213 C 221.667 243.011,224.168 243.124,225.792 241.454 C 227.659 239.534,227.502 229.471,225.567 227.028 C 225.083 226.417,224.603 225.476,224.500 224.938 C 224.253 223.642,223.749 222.699,222.690 221.558 C 222.211 221.041,221.732 220.225,221.626 219.743 C 221.501 219.174,221.073 218.645,220.402 218.230 C 219.835 217.879,219.241 217.221,219.082 216.766 C 218.924 216.312,218.349 215.664,217.804 215.328 C 217.259 214.991,216.646 214.374,216.442 213.957 C 216.237 213.539,215.590 212.950,215.003 212.648 C 214.415 212.345,213.861 211.808,213.771 211.454 C 213.675 211.078,213.061 210.523,212.290 210.117 C 211.566 209.736,210.899 209.189,210.808 208.904 C 210.717 208.618,210.221 208.170,209.704 207.909 C 208.261 207.180,207.686 206.797,206.539 205.806 C 205.958 205.303,205.011 204.736,204.435 204.546 C 203.847 204.352,203.307 203.946,203.203 203.619 C 203.022 203.049,200.336 201.607,199.454 201.607 C 199.214 201.607,198.756 201.240,198.436 200.791 C 198.052 200.252,197.310 199.804,196.247 199.469 C 195.363 199.190,194.255 198.604,193.785 198.166 C 193.313 197.727,192.098 197.125,191.071 196.823 C 190.049 196.523,188.747 195.910,188.178 195.462 C 187.525 194.948,186.335 194.461,184.953 194.141 C 183.747 193.862,182.564 193.404,182.323 193.123 C 182.082 192.842,181.139 192.253,180.228 191.814 C 178.063 190.772,178.387 190.009,181.220 189.477 C 181.767 189.375,182.783 188.841,183.478 188.291 C 184.173 187.741,185.256 187.152,185.884 186.983 C 186.935 186.700,187.572 186.310,188.633 185.302 C 188.853 185.092,189.628 184.718,190.355 184.470 C 191.082 184.222,192.037 183.635,192.478 183.164 C 192.922 182.690,193.914 182.119,194.702 181.883 C 195.543 181.631,196.645 180.978,197.398 180.283 C 198.099 179.637,198.853 179.109,199.074 179.109 C 199.294 179.109,200.376 178.517,201.477 177.794 C 202.578 177.071,203.631 176.479,203.817 176.479 C 204.003 176.479,204.600 176.015,205.145 175.447 C 205.690 174.879,206.779 174.086,207.565 173.685 C 208.351 173.284,209.369 172.640,209.828 172.254 C 210.286 171.868,210.949 171.461,211.299 171.350 C 211.650 171.239,212.407 170.715,212.981 170.187 C 214.165 169.097,216.586 167.416,218.601 166.286 C 219.351 165.866,220.337 165.189,220.793 164.782 C 221.249 164.375,222.246 163.613,223.009 163.088 C 223.773 162.563,224.397 162.019,224.397 161.879 C 224.397 161.739,224.811 161.533,225.316 161.423 C 225.821 161.312,226.774 160.742,227.434 160.158 C 228.094 159.573,229.138 158.838,229.753 158.524 C 230.368 158.211,231.179 157.590,231.554 157.144 C 231.930 156.698,232.677 156.123,233.215 155.866 C 233.752 155.610,234.476 154.968,234.822 154.440 C 235.216 153.839,235.776 153.414,236.320 153.306 C 236.888 153.192,237.404 152.784,237.811 152.126 C 238.152 151.573,238.768 151.036,239.178 150.933 C 239.588 150.830,240.377 150.293,240.931 149.739 C 241.485 149.185,242.325 148.532,242.798 148.287 C 243.744 147.798,245.142 146.500,245.142 146.110 C 245.142 145.975,245.663 145.655,246.300 145.400 C 247.004 145.119,247.631 144.603,247.898 144.085 C 248.144 143.609,248.738 143.094,249.244 142.918 C 250.189 142.589,251.252 141.532,251.269 140.906 C 251.274 140.705,251.547 140.541,251.875 140.541 C 252.203 140.541,253.091 139.977,253.847 139.289 C 254.604 138.600,255.789 137.656,256.482 137.192 C 257.175 136.727,257.860 136.124,258.006 135.852 C 258.151 135.580,258.749 135.131,259.333 134.853 C 259.917 134.576,260.612 133.968,260.877 133.501 C 261.152 133.017,261.778 132.514,262.337 132.328 C 262.932 132.130,263.541 131.621,263.890 131.029 C 264.236 130.443,264.847 129.929,265.423 129.738 C 265.950 129.564,266.562 129.085,266.782 128.673 C 267.003 128.261,267.714 127.654,268.362 127.324 C 269.010 126.994,270.033 126.217,270.635 125.597 C 271.238 124.977,271.876 124.470,272.054 124.470 C 272.232 124.470,272.922 123.939,273.588 123.290 C 274.254 122.641,275.259 121.816,275.822 121.457 C 276.384 121.098,276.976 120.507,277.137 120.143 C 277.298 119.779,277.821 119.381,278.305 119.256 C 278.817 119.123,279.461 118.614,279.852 118.035 C 280.221 117.488,280.912 116.905,281.387 116.738 C 281.863 116.572,282.744 115.963,283.347 115.385 C 283.949 114.807,284.866 114.114,285.386 113.846 C 285.905 113.577,286.620 112.965,286.975 112.485 C 287.330 112.005,288.028 111.464,288.526 111.284 C 289.024 111.104,289.698 110.582,290.023 110.124 C 290.348 109.666,291.064 108.989,291.614 108.618 C 292.164 108.248,292.765 107.640,292.951 107.269 C 293.136 106.897,293.674 106.358,294.147 106.070 C 294.620 105.783,295.225 105.087,295.492 104.525 C 295.759 103.963,296.240 103.434,296.562 103.350 C 296.883 103.266,297.377 102.760,297.660 102.226 C 297.943 101.692,298.609 100.842,299.141 100.336 C 299.673 99.830,300.376 98.906,300.704 98.283 C 301.032 97.661,301.675 96.757,302.133 96.275 C 302.591 95.793,303.180 94.882,303.443 94.252 C 303.707 93.621,304.241 92.854,304.631 92.547 C 305.344 91.987,306.501 89.804,306.501 89.020 C 306.501 88.788,306.811 88.396,307.189 88.148 C 307.567 87.900,308.183 86.932,308.556 85.996 C 308.930 85.061,309.534 83.988,309.898 83.614 C 310.262 83.239,310.849 82.056,311.203 80.984 C 311.557 79.912,312.145 78.733,312.510 78.362 C 312.875 77.991,313.459 76.742,313.807 75.586 C 314.155 74.430,314.754 73.153,315.136 72.747 C 315.774 72.072,317.020 68.857,317.020 67.886 C 317.020 67.660,317.233 67.394,317.494 67.294 C 318.036 67.086,319.221 64.575,319.514 63.013 C 319.630 62.395,319.919 61.897,320.218 61.802 C 320.731 61.639,320.864 61.422,321.948 58.971 C 322.281 58.220,322.694 57.519,322.866 57.413 C 323.352 57.112,324.617 54.996,324.617 54.483 C 324.617 53.786,326.194 53.281,329.578 52.894 C 331.263 52.702,332.775 52.458,332.938 52.352 C 333.885 51.740,335.794 51.367,339.956 50.981 C 349.877 50.060,350.160 50.020,351.484 49.366 C 352.819 48.707,354.239 48.459,359.805 47.917 C 362.257 47.677,363.411 47.412,364.772 46.773 C 365.849 46.268,367.520 45.807,369.028 45.599 C 373.107 45.036,374.228 44.752,375.381 43.991 C 376.127 43.499,377.342 43.127,379.171 42.832 C 381.886 42.395,382.641 42.128,383.875 41.171 C 384.246 40.883,385.298 40.507,386.212 40.335 C 388.565 39.893,389.821 39.443,390.344 38.856 C 390.759 38.388,392.406 37.772,394.595 37.265 C 395.392 37.080,396.922 36.100,397.903 35.146 C 398.115 34.939,398.674 34.770,399.144 34.770 C 399.615 34.770,400.000 34.638,400.000 34.478 C 400.000 33.921,398.329 34.189,397.341 34.904 C 395.764 36.046,394.413 36.702,392.854 37.084 C 392.058 37.279,390.612 37.874,389.640 38.407 C 388.669 38.940,387.287 39.463,386.569 39.570 C 385.851 39.677,384.265 40.264,383.044 40.876 C 381.533 41.632,380.222 42.055,378.943 42.199 C 377.909 42.316,376.275 42.776,375.310 43.221 C 372.782 44.387,371.833 44.643,368.824 44.967 C 367.346 45.126,365.834 45.454,365.464 45.696 C 364.592 46.266,361.647 47.093,359.971 47.237 C 355.507 47.622,352.822 47.957,352.545 48.163 C 351.437 48.991,348.085 49.576,341.498 50.091 C 338.490 50.326,335.794 50.638,335.509 50.783 C 335.223 50.929,333.806 51.279,332.359 51.560 C 330.913 51.842,328.622 52.295,327.269 52.568 L 324.808 53.064 323.909 54.696 C 323.414 55.593,322.585 56.967,322.065 57.747 C 321.546 58.528,321.119 59.379,321.116 59.639 C 321.113 59.898,320.801 60.424,320.422 60.807 C 319.712 61.528,319.193 62.549,318.322 64.938 C 318.044 65.701,317.727 66.326,317.616 66.326 C 317.349 66.326,316.263 68.802,315.870 70.309 C 315.696 70.974,315.347 71.689,315.093 71.900 C 314.546 72.354,313.670 74.204,313.256 75.778 C 313.093 76.397,312.501 77.580,311.941 78.408 C 311.380 79.235,310.781 80.452,310.611 81.111 C 310.440 81.770,309.993 82.641,309.618 83.046 C 309.243 83.450,308.566 84.653,308.113 85.718 C 307.660 86.784,307.177 87.655,307.038 87.655 C 306.900 87.655,306.388 88.526,305.901 89.590 C 305.413 90.654,304.629 91.910,304.158 92.381 C 303.686 92.853,303.042 93.823,302.726 94.537 C 302.410 95.252,302.022 95.836,301.864 95.836 C 301.706 95.836,301.171 96.545,300.676 97.411 C 300.180 98.278,299.283 99.528,298.682 100.189 C 296.728 102.340,295.415 103.860,294.995 104.456 C 294.611 105.001,292.791 106.846,290.215 109.301 C 289.611 109.877,288.722 110.593,288.240 110.893 C 287.757 111.192,286.903 111.885,286.340 112.431 C 285.778 112.978,284.825 113.677,284.222 113.986 C 283.619 114.295,283.126 114.678,283.126 114.838 C 283.126 114.997,282.436 115.572,281.592 116.115 C 280.749 116.658,279.732 117.453,279.332 117.883 C 278.933 118.313,278.208 118.853,277.721 119.084 C 277.235 119.315,276.707 119.788,276.548 120.134 C 276.390 120.481,275.800 121.005,275.237 121.299 C 274.675 121.593,274.018 122.068,273.776 122.354 C 273.535 122.641,272.549 123.488,271.585 124.237 C 270.621 124.986,269.450 125.937,268.983 126.350 C 268.516 126.762,268.039 127.100,267.922 127.100 C 267.805 127.100,267.183 127.626,266.541 128.269 C 265.898 128.912,265.220 129.438,265.034 129.438 C 264.848 129.438,264.184 129.931,263.558 130.533 C 261.614 132.405,260.230 133.611,259.180 134.346 C 258.625 134.735,257.836 135.363,257.427 135.741 C 256.063 137.002,254.933 137.910,254.726 137.911 C 254.613 137.911,254.087 138.354,253.557 138.895 C 253.027 139.436,252.294 139.972,251.928 140.086 C 251.562 140.200,251.050 140.617,250.791 141.013 C 250.531 141.409,249.746 142.069,249.045 142.479 C 248.345 142.890,247.772 143.341,247.772 143.481 C 247.772 143.621,247.082 144.258,246.238 144.896 C 245.394 145.534,244.259 146.459,243.715 146.951 C 243.171 147.443,242.614 147.845,242.476 147.845 C 242.339 147.845,241.501 148.503,240.614 149.306 C 239.726 150.110,238.814 150.767,238.585 150.767 C 238.357 150.767,237.888 151.163,237.543 151.648 C 237.197 152.132,236.514 152.736,236.023 152.990 C 235.533 153.244,234.628 153.965,234.013 154.593 C 233.397 155.220,232.779 155.734,232.639 155.734 C 232.498 155.734,231.824 156.251,231.140 156.882 C 230.457 157.513,229.440 158.246,228.881 158.512 C 228.323 158.777,227.291 159.381,226.590 159.855 C 225.888 160.328,224.614 161.029,223.760 161.411 C 222.905 161.793,221.686 162.645,221.051 163.303 C 220.149 164.238,219.681 164.500,218.913 164.500 C 217.824 164.500,216.911 164.904,216.228 165.687 C 215.981 165.971,214.956 166.623,213.952 167.134 C 212.947 167.646,212.126 168.174,212.126 168.306 C 212.126 168.439,211.371 168.905,210.449 169.341 C 209.526 169.778,208.178 170.624,207.454 171.223 C 206.729 171.821,205.696 172.457,205.158 172.637 C 204.620 172.816,203.727 173.360,203.175 173.845 C 202.622 174.330,201.709 174.920,201.146 175.155 C 200.583 175.390,199.569 176.032,198.893 176.582 C 198.216 177.131,197.253 177.668,196.753 177.775 C 196.253 177.882,195.581 178.258,195.261 178.612 C 194.265 179.711,193.617 180.130,192.313 180.520 C 191.620 180.727,190.831 181.160,190.560 181.484 C 190.062 182.076,187.376 183.492,186.750 183.492 C 186.565 183.492,186.413 183.590,186.413 183.711 C 186.412 184.055,184.052 185.429,182.761 185.837 C 182.118 186.040,181.228 186.510,180.782 186.881 C 180.337 187.252,179.179 187.845,178.210 188.198 C 175.743 189.098,174.631 191.088,176.595 191.088 C 177.510 191.088,181.102 192.617,181.452 193.155 C 181.689 193.519,184.063 194.468,185.732 194.866 C 186.562 195.064,187.462 195.469,187.732 195.767 C 188.001 196.065,189.228 196.668,190.459 197.106 C 191.689 197.545,192.958 198.131,193.280 198.408 C 193.870 198.917,197.027 200.438,197.494 200.438 C 197.633 200.438,197.824 200.642,197.919 200.890 C 198.015 201.138,198.975 201.754,200.053 202.259 C 201.130 202.763,202.464 203.602,203.016 204.122 C 203.567 204.643,204.348 205.151,204.750 205.252 C 205.151 205.353,205.868 205.823,206.342 206.297 C 206.816 206.771,207.391 207.159,207.619 207.159 C 207.848 207.159,208.035 207.281,208.035 207.431 C 208.035 207.581,208.312 207.791,208.649 207.898 C 208.987 208.006,209.809 208.597,210.476 209.213 C 212.454 211.039,214.950 213.209,215.386 213.480 C 215.609 213.619,216.016 214.085,216.290 214.516 C 216.563 214.946,217.185 215.534,217.671 215.821 C 218.157 216.108,218.632 216.588,218.727 216.887 C 218.822 217.186,219.479 218.036,220.188 218.775 C 220.896 219.514,221.476 220.248,221.476 220.405 C 221.476 220.562,221.990 221.361,222.620 222.179 C 223.249 222.997,223.856 224.164,223.969 224.772 C 224.082 225.381,224.504 226.364,224.907 226.958 C 226.755 229.681,227.289 236.575,225.912 239.921 C 225.013 242.105,222.982 242.746,221.372 241.354 C 220.866 240.918,219.693 240.216,218.763 239.795 C 217.834 239.375,216.519 238.584,215.842 238.038 C 215.164 237.492,214.207 236.911,213.716 236.746 C 213.224 236.581,212.379 236.042,211.837 235.547 C 211.296 235.052,210.472 234.564,210.006 234.461 C 209.541 234.359,208.522 233.709,207.743 233.017 C 206.963 232.324,205.931 231.671,205.448 231.565 C 204.966 231.459,204.115 230.942,203.557 230.416 C 203.000 229.890,202.151 229.298,201.671 229.099 C 201.192 228.900,200.422 228.345,199.962 227.864 C 199.502 227.384,198.552 226.737,197.851 226.427 C 197.150 226.117,196.108 225.452,195.535 224.949 C 194.962 224.446,194.146 223.886,193.720 223.705 C 193.294 223.523,192.515 222.882,191.987 222.279 C 191.459 221.676,190.849 221.183,190.630 221.183 C 190.411 221.183,189.800 220.806,189.272 220.344 C 188.745 219.883,187.859 219.231,187.305 218.895 C 186.134 218.186,183.744 216.309,181.756 214.536 C 180.990 213.853,180.228 213.294,180.062 213.294 C 179.897 213.294,179.286 212.768,178.705 212.126 C 178.125 211.483,177.522 210.957,177.366 210.957 C 177.210 210.957,176.651 210.527,176.124 210.002 C 175.596 209.478,174.704 208.725,174.142 208.331 C 173.579 207.936,172.615 207.150,171.998 206.582 C 171.382 206.015,170.642 205.420,170.355 205.259 C 169.855 204.980,168.918 204.116,166.155 201.388 C 165.463 200.705,164.748 200.146,164.566 200.146 C 164.384 200.146,163.801 199.605,163.272 198.943 C 161.787 197.090,159.810 196.341,156.501 196.377 C 152.955 196.416,152.449 196.580,152.044 197.821 L 151.715 198.831 146.962 198.995 L 142.210 199.158 141.523 200.018 C 141.145 200.490,140.835 201.041,140.834 201.242 C 140.833 201.523,139.078 201.618,133.163 201.653 C 126.844 201.691,117.168 201.800,112.889 201.882 C 112.065 201.897,111.951 202.010,111.767 202.995 C 111.654 203.598,111.442 204.235,111.296 204.413 C 111.135 204.608,111.154 205.090,111.345 205.639 C 111.713 206.695,110.792 209.890,109.790 211.031 C 109.473 211.392,108.849 212.476,108.403 213.440 C 107.957 214.405,107.117 215.696,106.535 216.310 C 105.954 216.924,105.478 217.567,105.478 217.738 C 105.478 218.268,99.644 224.679,99.157 224.685 C 98.975 224.688,98.603 225.029,98.331 225.444 C 98.059 225.860,97.419 226.376,96.909 226.592 C 96.400 226.809,95.485 227.459,94.876 228.038 C 94.268 228.617,93.377 229.170,92.898 229.266 C 92.418 229.362,91.955 229.554,91.869 229.694 C 91.782 229.834,91.466 229.949,91.167 229.949 C 90.867 229.949,90.219 230.288,89.726 230.703 C 88.566 231.678,85.723 232.097,81.373 231.931 C 76.304 231.739,75.984 231.339,77.867 227.548 C 78.590 226.093,79.182 224.746,79.182 224.555 C 79.182 224.364,79.513 223.896,79.917 223.517 C 80.321 223.137,80.926 222.073,81.262 221.152 C 81.598 220.231,82.312 218.999,82.848 218.413 C 83.385 217.827,83.982 216.863,84.174 216.271 C 84.367 215.678,84.918 214.742,85.398 214.190 C 85.878 213.638,86.484 212.716,86.744 212.141 C 87.004 211.566,87.644 210.688,88.167 210.191 C 88.689 209.693,89.121 209.104,89.126 208.880 C 89.141 208.308,89.701 207.375,90.723 206.217 C 91.943 204.836,92.330 204.088,92.330 203.108 C 92.330 202.105,92.960 201.489,93.736 201.736 C 94.634 202.020,95.254 201.621,95.231 200.772 C 95.207 199.856,94.875 198.925,94.583 198.956 C 94.469 198.968,93.005 198.977,91.331 198.977 L 88.286 198.977 88.108 198.165 C 87.826 196.882,86.959 196.550,83.517 196.406 L 80.402 196.275 80.214 195.275 C 79.982 194.039,79.255 193.718,76.679 193.718 C 75.371 193.718,74.799 193.607,74.798 193.353 C 74.793 192.101,73.477 191.302,71.178 191.154 C 69.128 191.023,68.885 190.942,68.648 190.318 C 68.504 189.938,68.260 189.627,68.107 189.627 C 67.954 189.627,67.608 189.407,67.339 189.138 C 67.040 188.839,66.207 188.597,65.199 188.517 C 63.709 188.399,63.431 188.263,62.313 187.108 C 61.220 185.978,60.926 185.829,59.788 185.829 C 58.653 185.829,58.478 185.741,58.314 185.088 C 58.212 184.681,57.816 184.229,57.434 184.084 C 57.053 183.939,56.654 183.680,56.549 183.510 C 56.443 183.339,55.858 183.199,55.247 183.199 C 54.178 183.199,54.128 183.154,53.876 181.961 C 53.620 180.747,53.586 180.719,52.163 180.515 C 50.863 180.329,50.256 180.130,48.801 179.413 C 47.846 178.941,47.608 175.501,48.455 174.400 C 48.750 174.017,49.369 172.652,49.832 171.366 C 50.294 170.080,50.913 168.768,51.207 168.449 C 51.501 168.130,52.081 167.289,52.496 166.581 C 53.228 165.331,56.544 161.890,58.255 160.603 C 58.717 160.255,59.338 159.744,59.636 159.466 C 59.933 159.189,60.712 158.574,61.366 158.100 C 62.019 157.626,62.910 156.901,63.344 156.488 C 65.548 154.392,67.030 153.104,67.239 153.104 C 67.367 153.104,68.184 152.525,69.054 151.816 C 69.924 151.107,71.079 150.303,71.622 150.029 C 72.164 149.755,72.913 149.152,73.286 148.688 C 73.660 148.224,74.173 147.845,74.427 147.845 C 74.682 147.845,75.363 147.347,75.943 146.738 C 76.522 146.129,77.783 145.182,78.746 144.632 C 79.709 144.083,80.745 143.404,81.050 143.122 C 81.354 142.841,82.181 142.339,82.888 142.007 C 83.594 141.675,84.250 141.202,84.344 140.957 C 84.438 140.711,85.409 140.060,86.502 139.510 C 87.594 138.960,88.573 138.372,88.677 138.204 C 88.781 138.036,89.613 137.521,90.525 137.060 C 91.438 136.599,92.423 135.957,92.715 135.634 C 93.007 135.310,94.059 134.752,95.053 134.394 C 96.046 134.036,97.123 133.436,97.447 133.061 C 97.770 132.686,98.920 132.058,100.003 131.665 C 101.086 131.272,102.373 130.613,102.863 130.201 C 103.352 129.789,104.394 129.262,105.177 129.029 C 106.810 128.544,107.706 128.101,108.440 127.418 C 108.724 127.154,109.836 126.703,110.913 126.416 C 111.989 126.130,113.278 125.592,113.776 125.221 C 114.571 124.629,118.203 123.302,119.025 123.302 C 119.191 123.302,119.818 122.960,120.420 122.543 C 121.052 122.105,122.527 121.559,123.914 121.250 C 125.234 120.956,126.693 120.435,127.156 120.092 C 128.238 119.293,129.928 118.697,132.553 118.191 C 133.704 117.970,135.186 117.513,135.845 117.176 C 137.073 116.550,138.550 116.201,142.148 115.687 C 143.272 115.527,144.807 115.075,145.558 114.683 C 146.912 113.976,148.838 113.567,153.165 113.070 C 154.458 112.922,156.108 112.496,157.039 112.070 C 158.237 111.522,159.709 111.209,162.676 110.872 C 167.910 110.278,169.790 109.946,170.817 109.436 C 171.899 108.898,175.415 108.198,178.314 107.945 C 180.015 107.796,180.825 107.574,181.528 107.064 C 182.682 106.228,184.781 105.186,185.312 105.186 C 185.528 105.186,186.274 104.686,186.971 104.074 C 187.668 103.461,188.866 102.738,189.634 102.465 C 190.402 102.192,191.424 101.601,191.906 101.151 C 192.388 100.700,193.317 100.156,193.970 99.940 C 194.624 99.724,195.445 99.243,195.795 98.870 C 196.145 98.498,197.322 97.853,198.410 97.437 C 199.498 97.021,200.457 96.501,200.542 96.281 C 200.730 95.790,202.097 95.154,204.271 94.547 C 205.174 94.295,206.069 93.902,206.258 93.674 C 207.260 92.466,211.583 92.514,212.731 93.746 C 213.280 94.336,214.352 94.712,216.552 95.086 C 217.139 95.186,218.089 95.587,218.664 95.977 C 220.313 97.096,222.317 97.424,230.241 97.868 C 237.547 98.279,248.577 97.461,251.032 96.327 C 252.623 95.591,253.717 95.303,257.851 94.529 C 259.136 94.289,260.233 93.955,260.289 93.788 C 260.414 93.412,262.490 92.330,263.086 92.330 C 264.399 92.330,266.653 91.576,267.897 90.720 C 268.783 90.111,269.952 89.627,271.012 89.431 C 271.945 89.258,272.982 88.921,273.316 88.680 C 273.649 88.440,274.208 88.036,274.557 87.783 C 274.906 87.530,275.854 87.148,276.663 86.934 C 277.472 86.721,278.699 86.087,279.389 85.526 C 280.153 84.905,281.121 84.428,281.868 84.305 C 282.681 84.171,283.453 83.764,284.161 83.096 C 284.748 82.542,285.643 81.879,286.150 81.622 C 286.656 81.365,287.597 80.731,288.240 80.214 C 288.882 79.696,289.737 79.102,290.139 78.894 C 291.027 78.433,293.481 76.368,297.550 72.656 C 298.332 71.943,299.647 70.753,300.472 70.010 C 301.297 69.268,304.470 66.247,307.524 63.297 C 310.577 60.347,313.930 57.180,314.974 56.259 C 317.329 54.183,319.942 51.639,319.942 51.422 C 319.942 51.333,317.908 49.311,315.423 46.928 C 312.937 44.546,310.823 42.344,310.725 42.036 C 310.627 41.727,310.035 40.883,309.410 40.160 C 308.775 39.426,308.081 38.200,307.838 37.382 C 307.599 36.577,307.163 35.562,306.869 35.125 C 305.506 33.103,305.478 32.923,305.478 26.119 C 305.478 19.983,305.512 19.577,306.051 19.183 C 307.269 18.292,317.223 18.430,318.939 19.362 C 322.735 21.423,325.262 23.555,326.641 25.858 C 327.026 26.501,327.566 27.290,327.840 27.611 C 328.115 27.933,328.629 29.116,328.983 30.241 C 329.336 31.366,329.994 32.945,330.444 33.750 C 330.894 34.555,331.356 35.890,331.469 36.716 C 331.605 37.706,331.901 38.430,332.335 38.838 L 332.995 39.458 333.846 38.801 C 334.314 38.439,334.828 37.980,334.989 37.779 C 335.150 37.579,335.873 37.209,336.596 36.957 C 337.319 36.706,338.394 36.113,338.984 35.639 C 339.574 35.166,340.766 34.513,341.632 34.189 C 342.499 33.865,343.488 33.338,343.832 33.018 C 344.175 32.699,345.536 32.043,346.857 31.561 C 348.177 31.079,349.493 30.433,349.779 30.125 C 350.245 29.625,352.546 28.926,353.727 28.926 C 353.973 28.926,354.854 28.477,355.685 27.927 C 356.900 27.123,357.680 26.862,359.679 26.587 C 361.045 26.400,362.390 26.126,362.670 25.979 C 362.949 25.832,363.316 25.712,363.487 25.712 C 363.658 25.712,364.350 25.439,365.025 25.105 C 368.288 23.493,380.580 23.580,383.984 25.239 C 384.838 25.656,386.260 26.127,387.144 26.287 C 389.498 26.713,391.234 27.217,391.234 27.474 C 391.234 27.840,393.028 28.785,394.499 29.194 C 395.366 29.435,396.368 30.043,397.242 30.857 C 398.635 32.154,400.000 32.573,400.000 31.702 C 400.000 31.438,399.730 31.264,399.322 31.264 C 398.949 31.264,398.128 30.832,397.496 30.304 C 395.788 28.876,394.845 28.342,394.031 28.342 C 393.629 28.342,392.868 27.970,392.340 27.516 C 391.113 26.459,389.499 25.841,387.290 25.582 C 386.196 25.454,385.118 25.104,384.422 24.651 C 381.245 22.583,365.345 22.758,364.037 24.875 C 363.937 25.037,362.882 25.300,361.694 25.459 C 357.864 25.971,356.384 26.385,355.449 27.206 C 354.869 27.715,354.037 28.071,353.098 28.211 C 351.294 28.480,349.460 29.262,348.824 30.033 C 348.558 30.355,347.780 30.713,347.091 30.829 C 345.748 31.056,343.960 31.924,343.427 32.606 C 343.247 32.837,342.417 33.229,341.583 33.476 C 340.750 33.724,339.582 34.363,338.989 34.896 C 338.396 35.429,337.467 35.962,336.925 36.079 C 335.526 36.383,334.056 37.317,333.872 38.020 C 333.567 39.189,332.691 38.538,332.319 36.864 C 331.868 34.832,331.354 33.572,330.725 32.954 C 330.444 32.678,330.051 31.692,329.851 30.763 C 329.414 28.732,328.856 27.536,327.947 26.687 C 327.574 26.339,327.178 25.687,327.065 25.239 C 326.848 24.375,325.733 23.083,325.204 23.083 C 325.031 23.083,324.629 22.642,324.311 22.103 C 323.957 21.503,323.252 20.912,322.495 20.582 C 321.814 20.284,320.896 19.749,320.456 19.392 C 318.310 17.652,307.650 17.024,305.771 18.527 " stroke="none" fill="#85b2ee" fill-rule="evenodd"></path><path id="path3" d="M310.007 18.676 C 305.099 18.924,305.478 18.304,305.478 26.086 C 305.478 32.926,305.506 33.102,306.869 35.125 C 307.163 35.562,307.599 36.577,307.838 37.382 C 308.081 38.200,308.775 39.426,309.410 40.160 C 310.035 40.883,310.627 41.727,310.725 42.036 C 310.823 42.344,312.937 44.546,315.423 46.928 C 317.908 49.311,319.942 51.333,319.942 51.422 C 319.942 51.639,317.329 54.183,314.974 56.259 C 313.930 57.180,310.577 60.347,307.524 63.297 C 304.470 66.247,301.279 69.286,300.432 70.050 C 299.586 70.814,298.271 72.005,297.511 72.696 C 293.384 76.449,291.020 78.436,290.139 78.894 C 289.737 79.102,288.882 79.696,288.240 80.214 C 287.597 80.731,286.656 81.365,286.150 81.622 C 285.643 81.879,284.748 82.542,284.161 83.096 C 283.453 83.764,282.681 84.171,281.868 84.305 C 281.121 84.428,280.153 84.905,279.389 85.526 C 278.699 86.087,277.472 86.721,276.663 86.934 C 275.854 87.148,274.906 87.530,274.557 87.783 C 274.208 88.036,273.649 88.440,273.316 88.680 C 272.982 88.921,271.945 89.258,271.012 89.431 C 269.952 89.627,268.783 90.111,267.897 90.720 C 266.653 91.576,264.399 92.330,263.086 92.330 C 262.490 92.330,260.414 93.412,260.289 93.788 C 260.233 93.955,259.136 94.289,257.851 94.529 C 253.717 95.303,252.623 95.591,251.032 96.327 C 248.577 97.461,237.547 98.279,230.241 97.868 C 222.317 97.424,220.313 97.096,218.664 95.977 C 218.089 95.587,217.139 95.186,216.552 95.086 C 214.352 94.712,213.280 94.336,212.731 93.746 C 211.583 92.514,207.260 92.466,206.258 93.674 C 206.069 93.902,205.174 94.295,204.271 94.547 C 202.097 95.154,200.730 95.790,200.542 96.281 C 200.457 96.501,199.498 97.021,198.410 97.437 C 197.322 97.853,196.145 98.498,195.795 98.870 C 195.445 99.243,194.624 99.724,193.970 99.940 C 193.317 100.156,192.388 100.700,191.906 101.151 C 191.424 101.601,190.402 102.192,189.634 102.465 C 188.866 102.738,187.668 103.461,186.971 104.074 C 186.274 104.686,185.528 105.186,185.312 105.186 C 184.781 105.186,182.682 106.228,181.528 107.064 C 180.825 107.574,180.015 107.796,178.314 107.945 C 175.415 108.198,171.899 108.898,170.817 109.436 C 169.790 109.946,167.910 110.278,162.676 110.872 C 159.709 111.209,158.237 111.522,157.039 112.070 C 156.108 112.496,154.458 112.922,153.165 113.070 C 148.838 113.567,146.912 113.976,145.558 114.683 C 144.807 115.075,143.272 115.527,142.148 115.687 C 138.550 116.201,137.073 116.550,135.845 117.176 C 135.186 117.513,133.704 117.970,132.553 118.191 C 129.928 118.697,128.238 119.293,127.156 120.092 C 126.693 120.435,125.234 120.956,123.914 121.250 C 122.527 121.559,121.052 122.105,120.420 122.543 C 119.818 122.960,119.191 123.302,119.025 123.302 C 118.203 123.302,114.571 124.629,113.776 125.221 C 113.278 125.592,111.989 126.130,110.913 126.416 C 109.836 126.703,108.724 127.154,108.440 127.418 C 107.706 128.101,106.810 128.544,105.177 129.029 C 104.394 129.262,103.352 129.789,102.863 130.201 C 102.373 130.613,101.086 131.272,100.003 131.665 C 98.920 132.058,97.770 132.686,97.447 133.061 C 97.123 133.436,96.046 134.036,95.053 134.394 C 94.059 134.752,93.007 135.310,92.715 135.634 C 92.423 135.957,91.438 136.599,90.525 137.060 C 89.613 137.521,88.781 138.036,88.677 138.204 C 88.573 138.372,87.594 138.960,86.502 139.510 C 85.409 140.060,84.438 140.711,84.344 140.957 C 84.250 141.202,83.594 141.675,82.888 142.007 C 82.181 142.339,81.354 142.841,81.050 143.122 C 80.745 143.404,79.709 144.083,78.746 144.632 C 77.783 145.182,76.522 146.129,75.943 146.738 C 75.363 147.347,74.682 147.845,74.427 147.845 C 74.173 147.845,73.660 148.224,73.286 148.688 C 72.913 149.152,72.164 149.755,71.622 150.029 C 71.079 150.303,69.924 151.107,69.054 151.816 C 68.184 152.525,67.367 153.104,67.239 153.104 C 67.030 153.104,65.548 154.392,63.344 156.488 C 62.910 156.901,62.019 157.626,61.366 158.100 C 60.712 158.574,59.933 159.189,59.636 159.466 C 59.338 159.744,58.717 160.255,58.255 160.603 C 56.544 161.890,53.228 165.331,52.496 166.581 C 52.081 167.289,51.501 168.130,51.207 168.449 C 50.913 168.768,50.293 170.080,49.828 171.366 C 49.364 172.652,48.725 174.057,48.409 174.490 C 47.045 176.355,48.180 179.979,49.936 179.367 C 50.663 179.113,53.718 179.113,62.339 179.364 C 82.415 179.950,97.798 179.634,104.823 178.489 C 111.880 177.340,115.250 177.437,117.639 178.859 C 118.140 179.157,118.767 179.401,119.033 179.401 C 119.299 179.401,120.072 179.909,120.752 180.531 C 121.431 181.152,122.381 181.862,122.863 182.109 C 123.346 182.356,124.242 182.958,124.856 183.447 C 125.469 183.936,126.455 184.490,127.047 184.678 C 127.639 184.867,128.583 185.455,129.145 185.986 C 129.782 186.587,130.813 187.137,131.877 187.442 C 132.817 187.712,133.826 188.173,134.120 188.466 C 134.910 189.256,135.647 189.589,137.377 189.937 C 139.223 190.308,142.001 191.353,142.001 191.677 C 142.001 192.155,146.159 192.607,151.593 192.719 L 157.240 192.836 158.148 193.862 C 158.647 194.425,159.205 194.887,159.387 194.887 C 159.833 194.887,160.993 196.247,160.993 196.769 C 160.993 196.998,161.245 197.265,161.552 197.362 C 161.859 197.460,162.591 198.126,163.179 198.843 C 163.766 199.560,164.393 200.146,164.572 200.146 C 164.751 200.146,165.463 200.705,166.155 201.388 C 168.918 204.116,169.855 204.980,170.355 205.259 C 170.642 205.420,171.382 206.015,171.998 206.582 C 172.615 207.150,173.579 207.936,174.142 208.331 C 174.704 208.725,175.596 209.478,176.124 210.002 C 176.651 210.527,177.210 210.957,177.366 210.957 C 177.522 210.957,178.125 211.483,178.705 212.126 C 179.286 212.768,179.897 213.294,180.062 213.294 C 180.228 213.294,180.990 213.853,181.756 214.536 C 183.744 216.309,186.134 218.186,187.305 218.895 C 187.859 219.231,188.745 219.883,189.272 220.344 C 189.800 220.806,190.411 221.183,190.630 221.183 C 190.849 221.183,191.459 221.676,191.987 222.279 C 192.515 222.882,193.294 223.523,193.720 223.705 C 194.146 223.886,194.962 224.446,195.535 224.949 C 196.108 225.452,197.150 226.117,197.851 226.427 C 198.552 226.737,199.502 227.384,199.962 227.864 C 200.422 228.345,201.192 228.900,201.671 229.099 C 202.151 229.298,203.000 229.890,203.557 230.416 C 204.115 230.942,204.966 231.459,205.448 231.565 C 205.931 231.671,206.963 232.324,207.743 233.017 C 208.522 233.709,209.541 234.359,210.006 234.461 C 210.472 234.564,211.296 235.052,211.837 235.547 C 212.379 236.042,213.224 236.581,213.716 236.746 C 214.207 236.911,215.164 237.492,215.842 238.038 C 216.519 238.584,217.834 239.375,218.763 239.795 C 219.693 240.216,220.866 240.918,221.372 241.354 C 222.982 242.746,225.013 242.105,225.912 239.921 C 227.289 236.575,226.755 229.681,224.907 226.958 C 224.504 226.364,224.082 225.381,223.969 224.772 C 223.856 224.164,223.249 222.997,222.620 222.179 C 221.990 221.361,221.476 220.562,221.476 220.405 C 221.476 220.248,220.896 219.514,220.188 218.775 C 219.479 218.036,218.822 217.186,218.727 216.887 C 218.632 216.588,218.157 216.108,217.671 215.821 C 217.185 215.534,216.563 214.946,216.290 214.516 C 216.016 214.085,215.609 213.619,215.386 213.480 C 214.950 213.209,212.454 211.039,210.476 209.213 C 209.809 208.597,208.987 208.006,208.649 207.898 C 208.312 207.791,208.035 207.581,208.035 207.431 C 208.035 207.281,207.848 207.159,207.619 207.159 C 207.391 207.159,206.816 206.771,206.342 206.297 C 205.868 205.823,205.151 205.353,204.750 205.252 C 204.348 205.151,203.567 204.643,203.016 204.122 C 202.464 203.602,201.130 202.763,200.053 202.259 C 198.975 201.754,198.015 201.138,197.919 200.890 C 197.824 200.642,197.633 200.438,197.494 200.438 C 197.027 200.438,193.870 198.917,193.280 198.408 C 192.958 198.131,191.689 197.545,190.459 197.106 C 189.228 196.668,188.001 196.065,187.732 195.767 C 187.462 195.469,186.562 195.064,185.732 194.866 C 184.063 194.468,181.689 193.519,181.452 193.155 C 181.003 192.464,177.490 191.088,176.175 191.088 L 174.762 191.088 174.561 189.752 C 174.312 188.090,174.356 188.049,177.206 187.324 C 178.489 186.997,179.585 186.591,179.642 186.420 C 179.876 185.719,180.701 185.230,182.610 184.662 C 184.012 184.244,184.680 183.891,184.804 183.500 C 184.972 182.969,187.625 181.738,188.601 181.738 C 188.828 181.738,189.342 181.307,189.744 180.780 C 190.248 180.120,190.893 179.710,191.821 179.462 C 192.561 179.264,193.497 178.772,193.900 178.369 C 194.957 177.312,195.764 176.862,196.989 176.648 C 197.679 176.527,198.131 176.261,198.242 175.911 C 198.472 175.185,199.454 174.568,201.184 174.064 C 201.962 173.837,202.737 173.406,202.906 173.105 C 203.413 172.206,203.874 171.804,204.401 171.804 C 205.604 171.804,207.176 171.104,207.328 170.501 C 207.556 169.593,208.550 169.067,210.373 168.891 C 211.903 168.744,211.975 168.700,211.890 167.968 C 211.816 167.329,211.939 167.174,212.621 167.043 C 215.533 166.483,216.508 165.983,216.508 165.048 C 216.508 164.452,216.600 164.427,218.554 164.490 C 219.738 164.529,219.985 164.412,221.037 163.320 C 221.680 162.652,222.905 161.793,223.760 161.411 C 224.614 161.029,225.888 160.328,226.590 159.855 C 227.291 159.381,228.323 158.777,228.881 158.512 C 229.440 158.246,230.457 157.513,231.140 156.882 C 231.824 156.251,232.498 155.734,232.639 155.734 C 232.779 155.734,233.397 155.220,234.013 154.593 C 234.628 153.965,235.533 153.244,236.023 152.990 C 236.514 152.736,237.197 152.132,237.543 151.648 C 237.888 151.163,238.357 150.767,238.585 150.767 C 238.814 150.767,239.726 150.110,240.614 149.306 C 241.501 148.503,242.339 147.845,242.476 147.845 C 242.614 147.845,243.171 147.443,243.715 146.951 C 244.259 146.459,245.394 145.534,246.238 144.896 C 247.082 144.258,247.772 143.621,247.772 143.481 C 247.772 143.341,248.345 142.890,249.045 142.479 C 249.746 142.069,250.531 141.409,250.791 141.013 C 251.050 140.617,251.562 140.200,251.928 140.086 C 252.294 139.972,253.027 139.436,253.557 138.895 C 254.087 138.354,254.613 137.911,254.726 137.911 C 254.933 137.910,256.063 137.002,257.427 135.741 C 257.836 135.363,258.625 134.735,259.180 134.346 C 260.230 133.611,261.614 132.405,263.558 130.533 C 264.184 129.931,264.848 129.438,265.034 129.438 C 265.220 129.438,265.898 128.912,266.541 128.269 C 267.183 127.626,267.805 127.100,267.922 127.100 C 268.039 127.100,268.516 126.762,268.983 126.350 C 269.450 125.937,270.621 124.986,271.585 124.237 C 272.549 123.488,273.535 122.641,273.776 122.354 C 274.018 122.068,274.675 121.593,275.237 121.299 C 275.800 121.005,276.390 120.481,276.548 120.134 C 276.707 119.788,277.235 119.315,277.721 119.084 C 278.208 118.853,278.933 118.313,279.332 117.883 C 279.732 117.453,280.749 116.658,281.592 116.115 C 282.436 115.572,283.126 114.997,283.126 114.838 C 283.126 114.678,283.619 114.295,284.222 113.986 C 284.825 113.677,285.778 112.978,286.340 112.431 C 286.903 111.885,287.757 111.192,288.240 110.893 C 288.722 110.593,289.611 109.877,290.215 109.301 C 292.791 106.846,294.611 105.001,294.995 104.456 C 295.415 103.860,296.728 102.340,298.682 100.189 C 299.283 99.528,300.180 98.278,300.676 97.411 C 301.171 96.545,301.706 95.836,301.864 95.836 C 302.022 95.836,302.410 95.252,302.726 94.537 C 303.042 93.823,303.686 92.853,304.158 92.381 C 304.629 91.910,305.413 90.654,305.901 89.590 C 306.388 88.526,306.900 87.655,307.038 87.655 C 307.177 87.655,307.660 86.784,308.113 85.718 C 308.566 84.653,309.243 83.450,309.618 83.046 C 309.993 82.641,310.440 81.770,310.611 81.111 C 310.781 80.452,311.380 79.235,311.941 78.408 C 312.501 77.580,313.093 76.397,313.256 75.778 C 313.670 74.204,314.546 72.354,315.093 71.900 C 315.347 71.689,315.696 70.974,315.870 70.309 C 316.263 68.802,317.349 66.326,317.616 66.326 C 317.727 66.326,318.044 65.701,318.322 64.938 C 319.193 62.549,319.712 61.528,320.422 60.807 C 320.801 60.424,321.113 59.898,321.116 59.639 C 321.119 59.379,321.546 58.528,322.065 57.747 C 322.585 56.967,323.414 55.593,323.909 54.696 L 324.808 53.064 327.269 52.568 C 328.622 52.295,330.913 51.842,332.359 51.560 C 333.806 51.279,335.223 50.929,335.509 50.783 C 335.794 50.638,338.490 50.326,341.498 50.091 C 348.085 49.576,351.437 48.991,352.545 48.163 C 352.822 47.957,355.507 47.622,359.971 47.237 C 361.647 47.093,364.592 46.266,365.464 45.696 C 365.834 45.454,367.346 45.126,368.824 44.967 C 371.833 44.643,372.782 44.387,375.310 43.221 C 376.275 42.776,377.909 42.316,378.943 42.199 C 380.222 42.055,381.533 41.632,383.044 40.876 C 384.265 40.264,385.851 39.677,386.569 39.570 C 387.287 39.463,388.669 38.940,389.640 38.407 C 390.612 37.874,392.058 37.279,392.854 37.084 C 394.413 36.702,395.764 36.046,397.341 34.904 C 397.887 34.509,398.708 34.186,399.167 34.186 C 399.924 34.186,400.000 34.093,400.000 33.163 C 400.000 32.283,399.904 32.140,399.310 32.140 C 398.899 32.140,398.064 31.622,397.242 30.857 C 396.368 30.043,395.366 29.435,394.499 29.194 C 393.028 28.785,391.234 27.840,391.234 27.474 C 391.234 27.217,389.498 26.713,387.144 26.287 C 386.260 26.127,384.838 25.656,383.984 25.239 C 380.580 23.580,368.288 23.493,365.025 25.105 C 364.350 25.439,363.658 25.712,363.487 25.712 C 363.316 25.712,362.949 25.832,362.670 25.979 C 362.390 26.126,361.045 26.400,359.679 26.587 C 357.680 26.862,356.900 27.123,355.685 27.927 C 354.854 28.477,353.973 28.926,353.727 28.926 C 352.546 28.926,350.245 29.625,349.779 30.125 C 349.493 30.433,348.177 31.079,346.857 31.561 C 345.536 32.043,344.175 32.699,343.832 33.018 C 343.488 33.338,342.499 33.865,341.632 34.189 C 340.766 34.513,339.574 35.166,338.984 35.639 C 338.394 36.113,337.319 36.706,336.596 36.957 C 335.873 37.209,335.150 37.579,334.989 37.779 C 334.828 37.980,334.314 38.439,333.846 38.801 L 332.995 39.458 332.335 38.838 C 331.901 38.430,331.605 37.706,331.469 36.716 C 331.356 35.890,330.894 34.555,330.444 33.750 C 329.994 32.945,329.336 31.366,328.983 30.241 C 328.629 29.116,328.115 27.933,327.840 27.611 C 327.566 27.290,327.026 26.501,326.641 25.858 C 325.664 24.226,323.282 21.916,321.549 20.920 C 320.745 20.458,319.890 19.913,319.649 19.709 C 318.557 18.785,315.120 18.417,310.007 18.676 M313.420 19.553 C 314.573 19.687,316.085 20.070,316.780 20.405 C 317.474 20.739,318.862 21.267,319.863 21.577 C 322.449 22.378,326.352 26.566,326.367 28.554 C 326.368 28.751,326.682 29.118,327.064 29.368 C 327.742 29.812,328.707 32.412,328.707 33.793 C 328.707 34.318,329.790 36.825,330.897 38.860 C 331.917 40.736,334.143 40.755,336.157 38.907 C 337.059 38.079,337.951 37.591,339.220 37.231 C 339.618 37.118,340.286 36.660,340.704 36.213 C 341.163 35.720,342.136 35.204,343.168 34.904 C 344.106 34.631,345.156 34.128,345.501 33.786 C 346.340 32.952,347.226 32.536,349.224 32.035 C 350.143 31.805,351.108 31.402,351.370 31.141 C 352.174 30.337,353.365 29.851,355.400 29.496 C 356.473 29.310,357.776 28.870,358.295 28.520 C 359.875 27.455,360.817 27.217,365.376 26.732 C 367.787 26.476,370.124 26.124,370.570 25.951 C 371.554 25.568,377.444 25.596,378.922 25.991 C 379.507 26.148,381.610 26.486,383.595 26.743 C 387.454 27.243,387.925 27.383,389.426 28.479 C 389.959 28.867,391.142 29.343,392.056 29.536 C 393.176 29.772,393.956 30.141,394.449 30.667 C 394.850 31.096,395.738 31.759,396.421 32.140 C 398.015 33.029,397.998 33.087,395.902 33.996 C 394.934 34.416,394.070 34.947,393.982 35.177 C 393.894 35.406,393.470 35.676,393.039 35.777 C 390.669 36.334,388.094 37.245,387.582 37.708 C 386.874 38.349,385.590 38.860,384.690 38.860 C 383.745 38.860,380.418 39.993,379.931 40.480 C 379.481 40.930,378.663 41.155,374.726 41.910 C 373.154 42.212,371.685 42.690,371.074 43.098 C 370.372 43.567,369.408 43.846,368.006 43.986 C 364.787 44.307,360.359 45.212,359.611 45.703 C 358.944 46.139,357.629 46.361,351.644 47.047 C 347.728 47.495,345.278 47.918,344.923 48.207 C 344.303 48.713,342.130 49.080,338.057 49.366 C 327.236 50.126,324.382 50.942,323.115 53.637 C 322.786 54.336,322.281 54.983,321.991 55.075 C 321.702 55.167,321.310 55.665,321.120 56.182 C 320.476 57.937,319.816 59.165,319.001 60.127 C 318.554 60.655,318.188 61.287,318.188 61.531 C 318.188 62.115,317.177 64.171,316.276 65.419 C 315.881 65.965,315.559 66.653,315.559 66.947 C 315.559 67.812,314.648 69.919,313.933 70.709 C 313.570 71.110,313.121 72.031,312.937 72.754 C 312.382 74.935,312.352 75.002,311.457 76.128 C 310.982 76.726,310.456 77.756,310.288 78.418 C 309.892 79.979,309.430 80.891,308.623 81.704 C 308.263 82.066,307.803 82.981,307.601 83.736 C 307.399 84.492,306.803 85.579,306.275 86.156 C 305.748 86.731,305.167 87.700,304.985 88.308 C 304.803 88.915,304.222 89.918,303.694 90.535 C 303.166 91.151,302.518 92.195,302.255 92.852 C 301.992 93.510,301.453 94.261,301.058 94.520 C 300.662 94.779,300.180 95.345,299.987 95.779 C 299.595 96.655,299.060 97.388,298.149 98.297 C 297.813 98.631,297.183 99.518,296.748 100.267 C 296.312 101.017,295.628 101.845,295.227 102.108 C 294.826 102.370,294.283 103.038,294.019 103.591 C 293.755 104.144,293.295 104.674,292.997 104.768 C 292.698 104.863,292.121 105.444,291.713 106.059 C 291.306 106.675,290.585 107.339,290.110 107.536 C 289.635 107.732,288.981 108.267,288.655 108.725 C 288.329 109.182,287.642 109.758,287.129 110.005 C 286.615 110.251,285.613 110.977,284.903 111.618 C 284.193 112.259,283.497 112.783,283.357 112.783 C 283.218 112.783,282.600 113.297,281.984 113.924 C 281.369 114.552,280.480 115.265,280.008 115.509 C 279.537 115.753,278.895 116.301,278.582 116.728 C 278.269 117.154,277.619 117.709,277.137 117.962 C 276.654 118.214,275.996 118.726,275.674 119.099 C 275.352 119.472,274.497 120.155,273.775 120.616 C 273.053 121.077,272.020 121.870,271.481 122.378 C 270.942 122.886,270.389 123.302,270.253 123.302 C 270.117 123.302,269.348 123.959,268.545 124.763 C 267.741 125.566,266.913 126.224,266.705 126.226 C 266.496 126.227,266.019 126.678,265.645 127.228 C 265.270 127.778,264.596 128.356,264.147 128.513 C 263.697 128.670,262.969 129.270,262.529 129.848 C 262.088 130.426,261.540 130.898,261.311 130.898 C 261.083 130.898,260.276 131.462,259.520 132.150 C 258.764 132.839,257.578 133.783,256.885 134.247 C 256.193 134.712,255.507 135.315,255.362 135.587 C 255.216 135.859,254.625 136.306,254.048 136.579 C 253.471 136.853,252.857 137.390,252.683 137.772 C 252.509 138.154,251.891 138.691,251.311 138.965 C 250.258 139.461,249.233 140.406,249.233 140.880 C 249.233 141.017,248.726 141.333,248.106 141.581 C 247.485 141.829,246.799 142.366,246.581 142.774 C 246.363 143.182,245.654 143.784,245.006 144.113 C 244.358 144.441,243.493 145.054,243.084 145.474 C 242.675 145.894,241.810 146.602,241.161 147.047 C 240.513 147.492,239.606 148.248,239.147 148.727 C 238.688 149.206,238.172 149.598,237.999 149.598 C 237.614 149.598,236.085 150.987,236.085 151.337 C 236.085 151.477,235.491 151.879,234.765 152.230 C 234.039 152.582,233.312 153.118,233.149 153.422 C 232.987 153.726,232.442 154.188,231.940 154.447 C 230.931 154.969,230.627 155.195,229.269 156.432 C 228.759 156.897,227.750 157.537,227.027 157.855 C 226.304 158.173,225.449 158.670,225.128 158.959 C 224.806 159.248,223.597 159.957,222.439 160.536 C 221.282 161.114,220.261 161.708,220.169 161.856 C 220.078 162.004,219.153 162.527,218.115 163.017 C 217.077 163.508,215.893 164.200,215.483 164.556 C 215.074 164.912,213.996 165.506,213.088 165.875 C 212.180 166.245,211.177 166.826,210.860 167.166 C 210.542 167.507,209.573 168.099,208.705 168.483 C 207.837 168.867,206.867 169.423,206.550 169.719 C 206.232 170.015,205.263 170.604,204.397 171.028 C 203.531 171.452,202.641 171.980,202.421 172.201 C 201.921 172.701,199.241 174.142,198.811 174.142 C 198.637 174.142,198.176 174.488,197.787 174.912 C 197.397 175.335,196.355 176.003,195.471 176.397 C 194.587 176.790,193.601 177.355,193.280 177.652 C 192.958 177.949,191.882 178.596,190.887 179.088 C 189.892 179.581,188.992 180.123,188.887 180.293 C 188.693 180.607,185.779 182.031,185.330 182.031 C 185.196 182.031,184.601 182.430,184.008 182.919 C 183.415 183.408,182.203 184.058,181.314 184.363 C 180.425 184.669,179.249 185.261,178.702 185.679 C 178.155 186.096,176.813 186.694,175.719 187.006 C 173.319 187.693,173.030 187.953,172.804 189.634 C 172.600 191.150,173.054 191.510,176.332 192.432 C 177.296 192.703,178.658 193.363,179.360 193.899 C 180.061 194.434,181.114 194.952,181.698 195.048 C 183.486 195.344,185.662 196.172,186.062 196.708 C 186.270 196.987,187.191 197.425,188.107 197.681 C 190.308 198.296,191.673 198.929,191.862 199.424 C 191.947 199.645,192.498 199.979,193.086 200.167 C 193.675 200.355,194.281 200.624,194.434 200.766 C 194.587 200.907,194.954 201.023,195.251 201.023 C 195.547 201.023,196.126 201.359,196.537 201.770 C 196.949 202.181,198.027 202.846,198.935 203.247 C 199.842 203.648,200.913 204.290,201.315 204.674 C 201.717 205.057,202.577 205.609,203.226 205.900 C 203.876 206.190,204.825 206.855,205.335 207.378 C 205.845 207.900,206.441 208.327,206.659 208.327 C 206.877 208.327,207.896 209.055,208.923 209.945 C 209.951 210.834,211.060 211.629,211.388 211.712 C 211.716 211.794,212.194 212.225,212.449 212.669 C 212.704 213.114,213.378 213.698,213.948 213.969 C 214.530 214.245,215.060 214.749,215.159 215.119 C 215.255 215.481,215.861 216.148,216.506 216.600 C 217.150 217.053,217.677 217.596,217.677 217.808 C 217.677 218.020,218.185 218.701,218.806 219.323 C 219.427 219.944,220.297 221.147,220.740 221.995 C 221.182 222.842,221.778 223.699,222.062 223.899 C 222.347 224.098,222.740 224.851,222.937 225.571 C 223.133 226.292,223.389 227.144,223.507 227.465 C 223.625 227.787,223.956 228.773,224.241 229.657 C 224.527 230.541,224.899 231.351,225.069 231.459 C 226.383 232.291,225.187 238.313,223.452 239.595 L 222.616 240.214 221.369 239.610 C 220.683 239.278,219.998 239.007,219.846 239.007 C 219.694 239.007,219.045 238.551,218.404 237.993 C 217.763 237.436,216.877 236.844,216.435 236.678 C 215.993 236.513,215.254 236.237,214.793 236.065 C 214.332 235.893,213.809 235.433,213.631 235.042 C 213.453 234.651,213.152 234.332,212.964 234.332 C 212.288 234.332,209.629 232.907,208.948 232.181 C 208.566 231.773,207.878 231.357,207.418 231.256 C 206.958 231.155,206.218 230.680,205.774 230.200 C 205.330 229.720,204.165 228.948,203.184 228.484 C 202.203 228.020,201.189 227.316,200.930 226.921 C 200.670 226.525,200.078 226.118,199.613 226.016 C 199.148 225.913,198.387 225.430,197.923 224.941 C 197.458 224.452,196.579 223.795,195.969 223.481 C 195.359 223.168,194.373 222.472,193.778 221.935 C 193.183 221.398,192.213 220.757,191.623 220.511 C 191.034 220.265,190.405 219.790,190.226 219.456 C 190.047 219.121,189.391 218.588,188.769 218.271 C 188.147 217.953,187.394 217.384,187.097 217.006 C 186.800 216.628,185.965 215.939,185.243 215.475 C 184.521 215.011,183.379 214.137,182.705 213.534 C 182.032 212.931,181.176 212.361,180.803 212.268 C 180.431 212.174,179.917 211.734,179.662 211.290 C 179.407 210.845,178.726 210.258,178.149 209.984 C 177.572 209.710,177.026 209.253,176.936 208.970 C 176.846 208.686,176.345 208.208,175.822 207.909 C 175.300 207.609,174.378 206.890,173.774 206.311 C 172.582 205.170,170.680 203.489,169.375 202.424 C 168.923 202.055,167.880 201.129,167.057 200.365 C 166.234 199.602,165.459 198.977,165.334 198.977 C 165.210 198.977,164.621 198.451,164.026 197.809 C 163.431 197.166,162.778 196.640,162.574 196.640 C 162.371 196.640,161.716 196.180,161.119 195.617 C 160.523 195.055,159.922 194.595,159.783 194.595 C 159.645 194.595,159.039 194.088,158.436 193.468 L 157.341 192.341 151.790 192.173 C 146.340 192.009,143.356 191.504,142.204 190.552 C 142.012 190.394,140.824 190.051,139.563 189.791 C 137.357 189.336,135.214 188.475,134.859 187.900 C 134.765 187.749,134.197 187.467,133.597 187.274 C 131.916 186.735,130.079 185.866,129.856 185.505 C 129.745 185.325,129.047 184.915,128.304 184.594 C 127.562 184.272,126.560 183.643,126.077 183.196 C 125.595 182.749,124.519 182.032,123.686 181.602 C 122.853 181.172,121.867 180.519,121.495 180.150 C 121.123 179.781,120.226 179.182,119.503 178.818 C 118.780 178.454,117.794 177.877,117.312 177.537 C 116.178 176.736,107.603 176.680,104.140 177.451 C 103.002 177.704,100.603 178.049,98.808 178.218 C 97.013 178.386,94.131 178.656,92.403 178.817 C 84.957 179.512,52.715 178.945,50.726 178.085 C 49.603 177.599,50.805 169.759,52.002 169.759 C 52.171 169.759,52.657 169.023,53.083 168.124 C 53.508 167.225,54.133 166.363,54.470 166.210 C 54.807 166.056,55.308 165.539,55.583 165.060 C 55.857 164.582,56.469 163.968,56.942 163.697 C 57.415 163.425,58.026 162.824,58.299 162.361 C 58.573 161.899,59.214 161.345,59.724 161.132 C 60.235 160.919,60.844 160.386,61.079 159.947 C 61.313 159.509,61.924 158.975,62.437 158.760 C 62.950 158.546,63.711 157.922,64.130 157.373 C 64.548 156.824,65.224 156.292,65.631 156.190 C 66.038 156.087,66.871 155.494,67.482 154.870 C 68.094 154.246,69.141 153.457,69.809 153.116 C 70.477 152.775,71.166 152.185,71.339 151.804 C 71.524 151.400,72.168 150.916,72.889 150.641 C 73.590 150.373,74.293 149.852,74.516 149.435 C 74.732 149.031,75.478 148.449,76.173 148.141 C 76.868 147.834,77.928 147.119,78.528 146.552 C 79.129 145.986,79.983 145.442,80.427 145.345 C 80.871 145.247,81.576 144.719,81.994 144.171 C 82.456 143.566,83.171 143.060,83.817 142.881 C 84.401 142.720,85.452 142.069,86.153 141.434 C 86.853 140.800,87.786 140.202,88.227 140.105 C 88.667 140.008,89.455 139.489,89.977 138.950 C 90.533 138.376,91.473 137.818,92.251 137.600 C 92.997 137.391,93.995 136.811,94.532 136.274 C 95.057 135.749,96.020 135.176,96.672 135.000 C 97.325 134.824,98.447 134.231,99.166 133.682 C 99.885 133.133,101.041 132.533,101.734 132.347 C 102.428 132.162,103.616 131.566,104.375 131.022 C 105.134 130.479,106.383 129.878,107.151 129.687 C 108.511 129.349,110.511 128.287,110.864 127.716 C 110.961 127.560,111.794 127.276,112.715 127.086 C 114.561 126.706,115.507 126.287,116.526 125.398 C 116.925 125.051,118.054 124.657,119.284 124.437 C 120.726 124.179,121.806 123.769,122.800 123.100 C 123.819 122.414,124.795 122.050,126.178 121.840 C 128.091 121.549,130.898 120.491,130.898 120.060 C 130.898 119.748,132.525 119.284,134.405 119.060 C 136.607 118.797,138.986 118.094,139.535 117.545 C 139.823 117.257,141.144 116.935,143.115 116.672 C 146.508 116.220,148.874 115.616,150.475 114.794 C 151.113 114.466,152.761 114.148,154.858 113.947 C 158.257 113.621,162.747 112.623,162.747 112.192 C 162.747 111.887,164.024 111.686,169.175 111.180 C 174.091 110.698,175.266 110.469,177.064 109.644 C 177.787 109.311,179.036 108.943,179.839 108.825 C 181.982 108.509,183.430 107.931,184.557 106.941 C 185.107 106.458,185.755 106.063,185.997 106.063 C 186.627 106.063,188.677 104.973,188.954 104.490 C 189.084 104.266,190.077 103.682,191.161 103.192 C 192.246 102.702,193.134 102.155,193.134 101.976 C 193.134 101.797,193.627 101.452,194.229 101.209 C 196.473 100.304,197.335 99.837,197.929 99.206 C 198.265 98.849,199.307 98.318,200.245 98.025 C 201.183 97.733,202.301 97.143,202.729 96.715 C 203.891 95.553,208.695 94.464,210.776 94.891 C 214.028 95.558,215.558 96.055,216.134 96.630 C 216.751 97.248,219.228 97.895,223.097 98.449 C 224.230 98.611,225.562 98.947,226.057 99.194 C 228.424 100.374,239.413 100.283,243.069 99.052 C 243.968 98.750,245.756 98.418,247.042 98.316 C 251.399 97.969,254.327 97.316,255.661 96.394 C 256.063 96.116,257.049 95.800,257.852 95.691 C 260.783 95.293,263.550 94.383,263.550 93.817 C 263.550 93.682,264.635 93.304,265.961 92.977 C 268.748 92.290,269.461 92.001,270.825 91.008 C 271.371 90.610,272.116 90.285,272.481 90.285 C 273.449 90.285,275.868 89.180,276.323 88.530 C 276.539 88.223,277.204 87.882,277.802 87.773 C 279.195 87.520,281.384 86.506,281.567 86.030 C 281.644 85.829,282.125 85.507,282.636 85.315 C 284.365 84.666,285.023 84.312,285.945 83.535 C 286.450 83.109,287.467 82.458,288.205 82.090 C 288.943 81.721,289.617 81.199,289.703 80.928 C 289.788 80.658,290.522 80.076,291.333 79.635 C 292.144 79.193,292.939 78.549,293.100 78.204 C 293.261 77.858,293.903 77.337,294.527 77.046 C 295.151 76.756,295.743 76.261,295.843 75.947 C 295.942 75.634,296.442 75.165,296.953 74.905 C 297.464 74.646,298.736 73.651,299.781 72.694 C 301.466 71.151,303.349 69.459,304.948 68.050 C 305.240 67.794,305.727 67.235,306.031 66.809 C 306.334 66.382,306.704 66.034,306.852 66.034 C 307.000 66.034,308.095 65.015,309.286 63.769 C 310.477 62.524,311.594 61.373,311.769 61.213 C 311.945 61.052,312.783 60.263,313.634 59.459 C 314.484 58.656,315.363 57.839,315.588 57.645 C 315.813 57.450,316.260 56.958,316.581 56.552 C 316.903 56.146,317.272 55.812,317.401 55.810 C 317.982 55.803,321.402 52.004,321.401 51.368 C 321.400 50.908,320.744 50.091,319.334 48.795 C 317.426 47.040,314.380 44.040,312.363 41.928 C 311.903 41.446,311.300 40.592,311.024 40.029 C 310.748 39.467,310.224 38.744,309.859 38.422 C 309.157 37.803,308.824 36.991,307.978 33.837 C 307.689 32.762,307.251 31.680,307.004 31.433 C 306.019 30.448,305.965 21.449,306.938 20.474 C 308.031 19.379,309.778 19.131,313.420 19.553 M92.689 201.949 C 92.492 202.147,92.330 202.678,92.330 203.130 C 92.330 204.088,91.937 204.843,90.723 206.217 C 89.701 207.375,89.141 208.308,89.126 208.880 C 89.121 209.104,88.689 209.693,88.167 210.191 C 87.644 210.688,87.004 211.566,86.744 212.141 C 86.484 212.716,85.878 213.638,85.398 214.190 C 84.918 214.742,84.367 215.678,84.174 216.271 C 83.982 216.863,83.385 217.827,82.848 218.413 C 82.312 218.999,81.598 220.231,81.262 221.152 C 80.926 222.073,80.321 223.137,79.917 223.517 C 79.513 223.896,79.182 224.364,79.182 224.555 C 79.182 224.746,78.585 226.103,77.856 227.571 C 75.951 231.406,76.186 231.697,81.373 231.917 C 85.694 232.101,88.560 231.684,89.726 230.703 C 90.219 230.288,90.867 229.949,91.167 229.949 C 91.466 229.949,91.782 229.834,91.869 229.694 C 91.955 229.554,92.418 229.362,92.898 229.266 C 93.377 229.170,94.268 228.617,94.876 228.038 C 95.485 227.459,96.400 226.809,96.909 226.592 C 97.419 226.376,98.059 225.860,98.331 225.444 C 98.603 225.029,98.975 224.688,99.157 224.685 C 99.644 224.679,105.478 218.268,105.478 217.738 C 105.478 217.567,105.954 216.924,106.535 216.310 C 107.117 215.696,107.961 214.392,108.411 213.412 C 108.861 212.432,109.450 211.410,109.720 211.140 C 110.449 210.411,111.669 206.840,111.466 206.028 C 111.186 204.905,110.633 204.573,108.216 204.074 C 106.958 203.814,105.720 203.490,105.466 203.354 C 105.212 203.218,103.566 202.963,101.808 202.787 C 98.829 202.490,95.508 202.052,93.785 201.728 C 93.380 201.652,92.887 201.752,92.689 201.949 M102.118 203.787 C 103.725 204.160,105.961 204.628,107.085 204.827 C 109.314 205.220,110.153 205.736,110.153 206.711 C 110.153 207.429,109.141 209.657,108.688 209.937 C 108.522 210.040,108.015 210.935,107.562 211.928 C 107.108 212.921,106.397 214.067,105.982 214.476 C 105.567 214.884,105.142 215.559,105.038 215.975 C 104.933 216.392,104.262 217.372,103.545 218.154 C 102.829 218.936,101.491 220.401,100.573 221.408 C 99.655 222.416,98.552 223.434,98.122 223.670 C 97.691 223.906,97.261 224.343,97.167 224.641 C 97.072 224.940,96.284 225.543,95.415 225.983 C 94.546 226.422,93.766 226.962,93.682 227.183 C 93.501 227.653,91.149 228.780,90.348 228.780 C 90.043 228.780,89.017 229.167,88.067 229.641 C 85.222 231.059,81.380 231.574,79.624 230.774 C 78.445 230.237,79.416 225.840,80.952 224.762 C 81.238 224.561,81.691 223.739,81.958 222.936 C 82.225 222.132,82.900 220.927,83.459 220.258 C 84.018 219.589,84.550 218.665,84.643 218.203 C 84.735 217.742,85.214 216.941,85.706 216.425 C 86.199 215.908,86.951 214.763,87.377 213.879 C 87.803 212.995,88.566 211.831,89.072 211.291 C 89.578 210.752,89.993 210.086,89.993 209.812 C 89.993 209.314,90.999 208.036,91.392 208.034 C 91.506 208.034,91.975 207.315,92.435 206.436 C 94.449 202.581,95.586 202.269,102.118 203.787 " stroke="none" fill="#8094b0" fill-rule="evenodd"></path><path id="path4" d="M216.795 164.503 C 216.212 164.863,216.646 165.199,217.254 164.859 C 217.528 164.706,217.630 164.505,217.482 164.413 C 217.333 164.321,217.024 164.362,216.795 164.503 M213.587 166.837 C 213.346 166.993,212.852 167.122,212.491 167.125 C 212.032 167.128,211.833 167.304,211.833 167.708 C 211.833 168.231,213.699 167.551,214.731 166.651 C 215.007 166.411,213.991 166.576,213.587 166.837 M208.272 169.386 C 207.839 169.654,207.415 170.155,207.328 170.498 C 207.176 171.104,205.607 171.804,204.401 171.804 C 203.874 171.804,203.413 172.206,202.906 173.105 C 202.737 173.406,201.962 173.837,201.184 174.064 C 199.454 174.568,198.472 175.185,198.242 175.911 C 198.131 176.261,197.679 176.527,196.989 176.648 C 195.764 176.862,194.957 177.312,193.900 178.369 C 193.497 178.772,192.561 179.264,191.821 179.462 C 190.893 179.710,190.248 180.120,189.744 180.780 C 189.342 181.307,188.828 181.738,188.601 181.738 C 187.625 181.738,184.972 182.969,184.804 183.500 C 184.680 183.891,184.012 184.244,182.610 184.662 C 180.701 185.230,179.876 185.719,179.642 186.420 C 179.585 186.591,178.489 186.997,177.206 187.324 C 174.356 188.049,174.312 188.090,174.561 189.752 C 174.805 191.377,175.299 191.457,175.922 189.972 C 176.327 189.008,176.624 188.776,178.180 188.209 C 179.166 187.850,180.337 187.252,180.782 186.881 C 181.228 186.510,182.118 186.040,182.761 185.837 C 184.052 185.429,186.412 184.055,186.413 183.711 C 186.413 183.590,186.565 183.492,186.750 183.492 C 187.376 183.492,190.062 182.076,190.560 181.484 C 190.831 181.160,191.620 180.727,192.313 180.520 C 193.617 180.130,194.265 179.711,195.261 178.612 C 195.581 178.258,196.253 177.882,196.753 177.775 C 197.253 177.668,198.216 177.131,198.893 176.582 C 199.569 176.032,200.583 175.390,201.146 175.155 C 201.709 174.920,202.622 174.330,203.175 173.845 C 203.727 173.360,204.620 172.814,205.158 172.633 C 205.696 172.452,206.841 171.732,207.703 171.032 C 208.566 170.332,209.420 169.755,209.603 169.750 C 209.785 169.745,210.189 169.547,210.501 169.311 C 211.356 168.665,209.324 168.733,208.272 169.386 M109.252 177.763 C 107.691 179.245,84.737 180.032,62.469 179.367 C 50.930 179.023,48.826 179.105,49.902 179.858 C 50.229 180.087,51.198 180.376,52.056 180.499 C 53.602 180.722,53.617 180.734,53.876 181.962 C 54.128 183.154,54.178 183.199,55.247 183.199 C 55.858 183.199,56.443 183.339,56.549 183.510 C 56.654 183.680,57.053 183.939,57.434 184.084 C 57.816 184.229,58.212 184.681,58.314 185.088 C 58.478 185.741,58.653 185.829,59.788 185.829 C 60.926 185.829,61.220 185.978,62.313 187.108 C 63.431 188.263,63.709 188.399,65.199 188.517 C 66.207 188.597,67.040 188.839,67.339 189.138 C 67.608 189.407,67.954 189.627,68.107 189.627 C 68.260 189.627,68.504 189.938,68.648 190.318 C 68.885 190.942,69.128 191.023,71.178 191.154 C 73.477 191.302,74.793 192.101,74.798 193.353 C 74.799 193.607,75.371 193.718,76.679 193.718 C 79.255 193.718,79.982 194.039,80.214 195.275 L 80.402 196.275 83.517 196.406 C 86.959 196.550,87.826 196.882,88.108 198.165 L 88.286 198.977 91.331 198.977 C 93.005 198.977,94.469 198.968,94.583 198.956 C 95.183 198.893,95.471 201.482,94.887 201.685 C 94.412 201.849,97.768 202.384,101.808 202.787 C 103.566 202.963,105.212 203.218,105.466 203.354 C 105.720 203.490,106.978 203.817,108.260 204.081 C 109.542 204.345,110.639 204.694,110.696 204.858 C 110.866 205.342,111.550 204.145,111.769 202.980 C 111.950 202.012,112.067 201.897,112.889 201.882 C 117.168 201.800,126.844 201.691,133.163 201.653 C 139.078 201.618,140.833 201.523,140.834 201.242 C 140.835 201.041,141.145 200.490,141.523 200.018 L 142.210 199.158 146.962 198.995 L 151.715 198.831 152.044 197.821 C 152.450 196.576,152.953 196.415,156.552 196.377 C 158.464 196.356,159.525 196.480,160.131 196.793 C 160.901 197.192,160.993 197.192,160.993 196.796 C 160.993 196.253,159.844 194.887,159.387 194.887 C 159.205 194.887,158.647 194.425,158.148 193.862 L 157.240 192.836 151.593 192.719 C 146.159 192.607,142.001 192.155,142.001 191.677 C 142.001 191.353,139.223 190.308,137.377 189.937 C 135.647 189.589,134.910 189.256,134.120 188.466 C 133.826 188.173,132.817 187.712,131.877 187.442 C 130.813 187.137,129.782 186.587,129.145 185.986 C 128.583 185.455,127.639 184.867,127.047 184.678 C 126.455 184.490,125.469 183.936,124.856 183.447 C 124.242 182.958,123.346 182.356,122.863 182.109 C 122.381 181.862,121.431 181.152,120.752 180.531 C 120.072 179.909,119.280 179.401,118.990 179.401 C 118.701 179.401,118.175 179.198,117.822 178.951 C 116.420 177.969,109.976 177.076,109.252 177.763 " stroke="none" fill="#74acf4" fill-rule="evenodd"></path></g></svg>